<svg width="248" height="248" viewBox="0 0 248 248" fill="none" xmlns="http://www.w3.org/2000/svg">
<g clip-path="url(#clip0_1_20)">
<path d="M-3.46425 27.3722C-3.46425 25.526 -1.87707 24.0281 -0.0631449 24.0281C1.87832 24.0281 3.40173 25.526 3.40173 27.3722C3.40173 29.2184 1.87832 30.7163 -0.0631449 30.7163C-1.87707 30.7163 -3.46425 29.2184 -3.46425 27.3722ZM-0.0631449 25.1428C-1.25353 25.1428 -2.33055 26.139 -2.33055 27.3722C-2.33055 28.6053 -1.25353 29.6016 -0.0631449 29.6016C1.25478 29.6016 2.26803 28.6053 2.26803 27.3722C2.26803 26.139 1.25478 25.1428 -0.0631449 25.1428ZM-1.1685 11.4277C-0.552054 10.8574 0.390336 10.8574 1.00679 11.4277C1.86415 12.2212 3.35922 13.7114 4.64172 15.5563C5.91713 17.39 7.03666 19.6389 7.03666 21.945C7.03666 22.7949 6.88078 23.6031 6.59735 24.3555C7.52557 24.467 8.43962 24.7596 9.28989 25.2473C11.3235 26.3968 12.7477 28.473 13.7255 30.4725C14.7104 32.4929 15.2773 34.5063 15.5465 35.635C15.7378 36.4501 15.2702 37.2513 14.4553 37.4882C13.3287 37.8226 11.2668 38.3521 8.99938 38.5193C6.74615 38.6934 4.20949 38.5123 2.17592 37.3628C1.25478 36.8333 0.489535 36.1366 -0.084402 35.3284C-0.665424 36.1366 -1.42359 36.8402 -2.35181 37.3628C-4.3783 38.5123 -6.92204 38.6934 -9.17527 38.5262C-11.442 38.3521 -13.5018 37.8226 -14.6305 37.4882C-15.4411 37.2513 -15.9116 36.4501 -15.7182 35.635C-15.4489 34.5063 -14.8835 32.4929 -13.9 30.4794C-12.9229 28.473 -11.4972 26.3968 -9.46579 25.2473C-8.60842 24.7596 -7.68729 24.467 -6.76616 24.3555C-7.0425 23.6031 -7.19838 22.7949 -7.19838 21.945C-7.19838 19.6389 -6.07885 17.3907 -4.80344 15.5563C-3.52094 13.7114 -2.02587 12.2212 -1.1685 11.4277ZM0.227367 12.24C0.0502257 12.0728 -0.275715 12.0728 -0.396171 12.24C-1.22519 13.005 -2.6494 14.4332 -3.86813 16.1861C-5.09395 17.9459 -6.06468 19.9733 -6.06468 21.945C-6.06468 22.9064 -5.83085 23.8121 -5.4128 24.6133C-5.32777 24.7875 -5.33486 24.9895 -5.43406 25.1567C-5.54034 25.3239 -5.72457 25.4214 -5.92297 25.4214C-6.92913 25.4214 -7.95655 25.6792 -8.89893 26.2087C-9.08316 26.3132 -9.2603 26.4247 -9.43036 26.5501C-10.9042 27.5882 -12.0372 29.2324 -12.8782 30.9602C-13.8121 32.8134 -14.3549 34.8059 -14.6149 35.8927C-14.6716 36.1296 -14.5405 36.3526 -14.3031 36.4222C-13.2148 36.7427 -11.2422 37.2513 -9.09025 37.4115C-6.92204 37.5718 -4.65464 37.3837 -2.91866 36.3944C-1.88415 35.8091 -1.09765 34.9661 -0.587483 33.9977C-0.495369 33.8096 -0.296971 33.6912 -0.084402 33.6912C0.128167 33.6912 0.319479 33.8096 0.418677 33.9977C0.921758 34.9661 1.70826 35.8091 2.74277 36.3944C4.48583 37.3837 6.74615 37.5718 8.91435 37.4115C11.0684 37.2513 13.0382 36.7427 14.1294 36.4222C14.3703 36.3526 14.4978 36.1296 14.4412 35.8927C14.179 34.8059 13.6405 32.8691 12.7052 30.9602C11.7628 29.0303 10.4661 27.198 8.73013 26.2087C7.78774 25.6792 6.76741 25.4214 5.75416 25.4214C5.55576 25.3587 5.37862 25.3169 5.27234 25.1567C5.10937 24.9895 5.16605 24.7875 5.25108 24.6133C5.60536 23.8121 5.90296 22.9064 5.90296 21.945C5.90296 19.9733 4.93223 17.9459 3.70641 16.1861C2.48768 14.4332 1.05639 13.005 0.227367 12.24ZM14.8167 19.5762C13.8247 19.5344 11.7344 19.5135 8.9923 20.5794C8.9427 20.2032 8.87184 19.834 8.77973 19.4647C11.7699 18.3431 14.0514 18.4127 15.1001 18.5451C15.7874 18.6287 16.1842 19.3115 15.915 19.9315C15.5111 20.886 14.4482 22.8367 12.0249 24.7944C11.7274 24.5506 11.4156 24.3207 11.0896 24.1047C13.3854 22.3072 14.4128 20.5237 14.8167 19.5762ZM-15.1017 18.5451C-14.0495 18.4127 -11.7672 18.3431 -8.77848 19.4647C-8.87059 19.834 -8.94145 20.2032 -8.99105 20.5794C-11.7318 19.5135 -13.8249 19.5344 -14.8126 19.5762C-14.4101 20.5237 -13.387 22.3072 -11.0919 24.1047C-11.4193 24.3137 -11.7304 24.5506 -12.0272 24.7317C-14.4498 22.8298 -15.5098 20.886 -15.9165 19.9315C-16.183 19.3115 -15.7848 18.6287 -15.1017 18.5451ZM-0.870908 45.535C-1.47319 44.6293 -2.57855 42.7064 -3.10288 39.9684C-2.74152 39.836 -2.38723 39.6897 -2.03295 39.5155C-1.58656 42.0863 -0.580397 43.9117 0.000625383 44.8034C0.581648 43.9117 1.58781 42.0863 2.0342 39.5225C2.38849 39.6897 2.74276 39.7803 3.10413 39.9684C2.5798 42.7064 1.48152 44.6293 0.872158 45.535C0.44702 46.155 -0.44577 46.155 -0.870908 45.535Z" fill="#BABABA" fill-opacity="0.25"/>
<path d="M-3.46425 123.372C-3.46425 121.526 -1.87707 120.028 -0.0631449 120.028C1.87832 120.028 3.40173 121.526 3.40173 123.372C3.40173 125.218 1.87832 126.716 -0.0631449 126.716C-1.87707 126.716 -3.46425 125.218 -3.46425 123.372ZM-0.0631449 121.143C-1.25353 121.143 -2.33055 122.139 -2.33055 123.372C-2.33055 124.605 -1.25353 125.602 -0.0631449 125.602C1.25478 125.602 2.26803 124.605 2.26803 123.372C2.26803 122.139 1.25478 121.143 -0.0631449 121.143ZM-1.1685 107.428C-0.552054 106.857 0.390336 106.857 1.00679 107.428C1.86415 108.221 3.35922 109.711 4.64172 111.556C5.91713 113.39 7.03666 115.639 7.03666 117.945C7.03666 118.795 6.88078 119.603 6.59735 120.356C7.52557 120.467 8.43962 120.76 9.28989 121.247C11.3235 122.397 12.7477 124.473 13.7255 126.472C14.7104 128.493 15.2773 130.506 15.5465 131.635C15.7378 132.45 15.2702 133.251 14.4553 133.488C13.3287 133.823 11.2668 134.352 8.99938 134.519C6.74615 134.693 4.20949 134.512 2.17592 133.363C1.25478 132.833 0.489535 132.137 -0.084402 131.328C-0.665424 132.137 -1.42359 132.84 -2.35181 133.363C-4.3783 134.512 -6.92204 134.693 -9.17527 134.526C-11.442 134.352 -13.5018 133.823 -14.6305 133.488C-15.4411 133.251 -15.9116 132.45 -15.7182 131.635C-15.4489 130.506 -14.8835 128.493 -13.9 126.479C-12.9229 124.473 -11.4972 122.397 -9.46579 121.247C-8.60842 120.76 -7.68729 120.467 -6.76616 120.356C-7.0425 119.603 -7.19838 118.795 -7.19838 117.945C-7.19838 115.639 -6.07885 113.391 -4.80344 111.556C-3.52094 109.711 -2.02587 108.221 -1.1685 107.428ZM0.227367 108.24C0.0502257 108.073 -0.275715 108.073 -0.396171 108.24C-1.22519 109.005 -2.6494 110.433 -3.86813 112.186C-5.09395 113.946 -6.06468 115.973 -6.06468 117.945C-6.06468 118.906 -5.83085 119.812 -5.4128 120.613C-5.32777 120.787 -5.33486 120.989 -5.43406 121.157C-5.54034 121.324 -5.72457 121.421 -5.92297 121.421C-6.92913 121.421 -7.95655 121.679 -8.89893 122.209C-9.08316 122.313 -9.2603 122.425 -9.43036 122.55C-10.9042 123.588 -12.0372 125.232 -12.8782 126.96C-13.8121 128.813 -14.3549 130.806 -14.6149 131.893C-14.6716 132.13 -14.5405 132.353 -14.3031 132.422C-13.2148 132.743 -11.2422 133.251 -9.09025 133.412C-6.92204 133.572 -4.65464 133.384 -2.91866 132.394C-1.88415 131.809 -1.09765 130.966 -0.587483 129.998C-0.495369 129.81 -0.296971 129.691 -0.084402 129.691C0.128167 129.691 0.319479 129.81 0.418677 129.998C0.921758 130.966 1.70826 131.809 2.74277 132.394C4.48583 133.384 6.74615 133.572 8.91435 133.412C11.0684 133.251 13.0382 132.743 14.1294 132.422C14.3703 132.353 14.4978 132.13 14.4412 131.893C14.179 130.806 13.6405 128.869 12.7052 126.96C11.7628 125.03 10.4661 123.198 8.73013 122.209C7.78774 121.679 6.76741 121.421 5.75416 121.421C5.55576 121.359 5.37862 121.317 5.27234 121.157C5.10937 120.989 5.16605 120.787 5.25108 120.613C5.60536 119.812 5.90296 118.906 5.90296 117.945C5.90296 115.973 4.93223 113.946 3.70641 112.186C2.48768 110.433 1.05639 109.005 0.227367 108.24ZM14.8167 115.576C13.8247 115.534 11.7344 115.513 8.9923 116.579C8.9427 116.203 8.87184 115.834 8.77973 115.465C11.7699 114.343 14.0514 114.413 15.1001 114.545C15.7874 114.629 16.1842 115.311 15.915 115.932C15.5111 116.886 14.4482 118.837 12.0249 120.794C11.7274 120.551 11.4156 120.321 11.0896 120.105C13.3854 118.307 14.4128 116.524 14.8167 115.576ZM-15.1017 114.545C-14.0495 114.413 -11.7672 114.343 -8.77848 115.465C-8.87059 115.834 -8.94145 116.203 -8.99105 116.579C-11.7318 115.513 -13.8249 115.534 -14.8126 115.576C-14.4101 116.524 -13.387 118.307 -11.0919 120.105C-11.4193 120.314 -11.7304 120.551 -12.0272 120.732C-14.4498 118.83 -15.5098 116.886 -15.9165 115.932C-16.183 115.311 -15.7848 114.629 -15.1017 114.545ZM-0.870908 141.535C-1.47319 140.629 -2.57855 138.706 -3.10288 135.968C-2.74152 135.836 -2.38723 135.69 -2.03295 135.516C-1.58656 138.086 -0.580397 139.912 0.000625383 140.803C0.581648 139.912 1.58781 138.086 2.0342 135.523C2.38849 135.69 2.74276 135.78 3.10413 135.968C2.5798 138.706 1.48152 140.629 0.872158 141.535C0.44702 142.155 -0.44577 142.155 -0.870908 141.535Z" fill="#BABABA" fill-opacity="0.25"/>
<path d="M-3.46425 75.3722C-3.46425 73.526 -1.87707 72.0281 -0.0631449 72.0281C1.87832 72.0281 3.40173 73.526 3.40173 75.3722C3.40173 77.2184 1.87832 78.7163 -0.0631449 78.7163C-1.87707 78.7163 -3.46425 77.2184 -3.46425 75.3722ZM-0.0631449 73.1428C-1.25353 73.1428 -2.33055 74.139 -2.33055 75.3722C-2.33055 76.6053 -1.25353 77.6016 -0.0631449 77.6016C1.25478 77.6016 2.26803 76.6053 2.26803 75.3722C2.26803 74.139 1.25478 73.1428 -0.0631449 73.1428ZM-1.1685 59.4277C-0.552054 58.8574 0.390336 58.8574 1.00679 59.4277C1.86415 60.2212 3.35922 61.7114 4.64172 63.5563C5.91713 65.39 7.03666 67.6389 7.03666 69.945C7.03666 70.7949 6.88078 71.6031 6.59735 72.3555C7.52557 72.467 8.43962 72.7596 9.28989 73.2473C11.3235 74.3968 12.7477 76.473 13.7255 78.4725C14.7104 80.4929 15.2773 82.5063 15.5465 83.635C15.7378 84.4501 15.2702 85.2513 14.4553 85.4882C13.3287 85.8226 11.2668 86.3521 8.99938 86.5193C6.74615 86.6934 4.20949 86.5123 2.17592 85.3628C1.25478 84.8333 0.489535 84.1366 -0.084402 83.3284C-0.665424 84.1366 -1.42359 84.8402 -2.35181 85.3628C-4.3783 86.5123 -6.92204 86.6934 -9.17527 86.5262C-11.442 86.3521 -13.5018 85.8226 -14.6305 85.4882C-15.4411 85.2513 -15.9116 84.4501 -15.7182 83.635C-15.4489 82.5063 -14.8835 80.4929 -13.9 78.4794C-12.9229 76.473 -11.4972 74.3968 -9.46579 73.2473C-8.60842 72.7596 -7.68729 72.467 -6.76616 72.3555C-7.0425 71.6031 -7.19838 70.7949 -7.19838 69.945C-7.19838 67.6389 -6.07885 65.3907 -4.80344 63.5563C-3.52094 61.7114 -2.02587 60.2212 -1.1685 59.4277ZM0.227367 60.24C0.0502257 60.0728 -0.275715 60.0728 -0.396171 60.24C-1.22519 61.005 -2.6494 62.4332 -3.86813 64.1861C-5.09395 65.9459 -6.06468 67.9733 -6.06468 69.945C-6.06468 70.9064 -5.83085 71.8121 -5.4128 72.6133C-5.32777 72.7875 -5.33486 72.9895 -5.43406 73.1567C-5.54034 73.3239 -5.72457 73.4214 -5.92297 73.4214C-6.92913 73.4214 -7.95655 73.6792 -8.89893 74.2087C-9.08316 74.3132 -9.2603 74.4247 -9.43036 74.5501C-10.9042 75.5882 -12.0372 77.2324 -12.8782 78.9602C-13.8121 80.8134 -14.3549 82.8059 -14.6149 83.8927C-14.6716 84.1296 -14.5405 84.3526 -14.3031 84.4222C-13.2148 84.7427 -11.2422 85.2513 -9.09025 85.4115C-6.92204 85.5718 -4.65464 85.3837 -2.91866 84.3944C-1.88415 83.8091 -1.09765 82.9661 -0.587483 81.9977C-0.495369 81.8096 -0.296971 81.6912 -0.084402 81.6912C0.128167 81.6912 0.319479 81.8096 0.418677 81.9977C0.921758 82.9661 1.70826 83.8091 2.74277 84.3944C4.48583 85.3837 6.74615 85.5718 8.91435 85.4115C11.0684 85.2513 13.0382 84.7427 14.1294 84.4222C14.3703 84.3526 14.4978 84.1296 14.4412 83.8927C14.179 82.8059 13.6405 80.8691 12.7052 78.9602C11.7628 77.0303 10.4661 75.198 8.73013 74.2087C7.78774 73.6792 6.76741 73.4214 5.75416 73.4214C5.55576 73.3587 5.37862 73.3169 5.27234 73.1567C5.10937 72.9895 5.16605 72.7875 5.25108 72.6133C5.60536 71.8121 5.90296 70.9064 5.90296 69.945C5.90296 67.9733 4.93223 65.9459 3.70641 64.1861C2.48768 62.4332 1.05639 61.005 0.227367 60.24ZM14.8167 67.5762C13.8247 67.5344 11.7344 67.5135 8.9923 68.5794C8.9427 68.2032 8.87184 67.834 8.77973 67.4647C11.7699 66.3431 14.0514 66.4127 15.1001 66.5451C15.7874 66.6287 16.1842 67.3115 15.915 67.9315C15.5111 68.886 14.4482 70.8367 12.0249 72.7944C11.7274 72.5506 11.4156 72.3207 11.0896 72.1047C13.3854 70.3072 14.4128 68.5237 14.8167 67.5762ZM-15.1017 66.5451C-14.0495 66.4127 -11.7672 66.3431 -8.77848 67.4647C-8.87059 67.834 -8.94145 68.2032 -8.99105 68.5794C-11.7318 67.5135 -13.8249 67.5344 -14.8126 67.5762C-14.4101 68.5237 -13.387 70.3072 -11.0919 72.1047C-11.4193 72.3137 -11.7304 72.5506 -12.0272 72.7317C-14.4498 70.8298 -15.5098 68.886 -15.9165 67.9315C-16.183 67.3115 -15.7848 66.6287 -15.1017 66.5451ZM-0.870908 93.535C-1.47319 92.6293 -2.57855 90.7064 -3.10288 87.9684C-2.74152 87.836 -2.38723 87.6897 -2.03295 87.5155C-1.58656 90.0863 -0.580397 91.9117 0.000625383 92.8034C0.581648 91.9117 1.58781 90.0863 2.0342 87.5225C2.38849 87.6897 2.74276 87.7803 3.10413 87.9684C2.5798 90.7064 1.48152 92.6293 0.872158 93.535C0.44702 94.155 -0.44577 94.155 -0.870908 93.535Z" fill="#BABABA" fill-opacity="0.25"/>
<path d="M-3.46425 171.372C-3.46425 169.526 -1.87707 168.028 -0.0631449 168.028C1.87832 168.028 3.40173 169.526 3.40173 171.372C3.40173 173.218 1.87832 174.716 -0.0631449 174.716C-1.87707 174.716 -3.46425 173.218 -3.46425 171.372ZM-0.0631449 169.143C-1.25353 169.143 -2.33055 170.139 -2.33055 171.372C-2.33055 172.605 -1.25353 173.602 -0.0631449 173.602C1.25478 173.602 2.26803 172.605 2.26803 171.372C2.26803 170.139 1.25478 169.143 -0.0631449 169.143ZM-1.1685 155.428C-0.552054 154.857 0.390336 154.857 1.00679 155.428C1.86415 156.221 3.35922 157.711 4.64172 159.556C5.91713 161.39 7.03666 163.639 7.03666 165.945C7.03666 166.795 6.88078 167.603 6.59735 168.356C7.52557 168.467 8.43962 168.76 9.28989 169.247C11.3235 170.397 12.7477 172.473 13.7255 174.472C14.7104 176.493 15.2773 178.506 15.5465 179.635C15.7378 180.45 15.2702 181.251 14.4553 181.488C13.3287 181.823 11.2668 182.352 8.99938 182.519C6.74615 182.693 4.20949 182.512 2.17592 181.363C1.25478 180.833 0.489535 180.137 -0.084402 179.328C-0.665424 180.137 -1.42359 180.84 -2.35181 181.363C-4.3783 182.512 -6.92204 182.693 -9.17527 182.526C-11.442 182.352 -13.5018 181.823 -14.6305 181.488C-15.4411 181.251 -15.9116 180.45 -15.7182 179.635C-15.4489 178.506 -14.8835 176.493 -13.9 174.479C-12.9229 172.473 -11.4972 170.397 -9.46579 169.247C-8.60842 168.76 -7.68729 168.467 -6.76616 168.356C-7.0425 167.603 -7.19838 166.795 -7.19838 165.945C-7.19838 163.639 -6.07885 161.391 -4.80344 159.556C-3.52094 157.711 -2.02587 156.221 -1.1685 155.428ZM0.227367 156.24C0.0502257 156.073 -0.275715 156.073 -0.396171 156.24C-1.22519 157.005 -2.6494 158.433 -3.86813 160.186C-5.09395 161.946 -6.06468 163.973 -6.06468 165.945C-6.06468 166.906 -5.83085 167.812 -5.4128 168.613C-5.32777 168.787 -5.33486 168.989 -5.43406 169.157C-5.54034 169.324 -5.72457 169.421 -5.92297 169.421C-6.92913 169.421 -7.95655 169.679 -8.89893 170.209C-9.08316 170.313 -9.2603 170.425 -9.43036 170.55C-10.9042 171.588 -12.0372 173.232 -12.8782 174.96C-13.8121 176.813 -14.3549 178.806 -14.6149 179.893C-14.6716 180.13 -14.5405 180.353 -14.3031 180.422C-13.2148 180.743 -11.2422 181.251 -9.09025 181.412C-6.92204 181.572 -4.65464 181.384 -2.91866 180.394C-1.88415 179.809 -1.09765 178.966 -0.587483 177.998C-0.495369 177.81 -0.296971 177.691 -0.084402 177.691C0.128167 177.691 0.319479 177.81 0.418677 177.998C0.921758 178.966 1.70826 179.809 2.74277 180.394C4.48583 181.384 6.74615 181.572 8.91435 181.412C11.0684 181.251 13.0382 180.743 14.1294 180.422C14.3703 180.353 14.4978 180.13 14.4412 179.893C14.179 178.806 13.6405 176.869 12.7052 174.96C11.7628 173.03 10.4661 171.198 8.73013 170.209C7.78774 169.679 6.76741 169.421 5.75416 169.421C5.55576 169.359 5.37862 169.317 5.27234 169.157C5.10937 168.989 5.16605 168.787 5.25108 168.613C5.60536 167.812 5.90296 166.906 5.90296 165.945C5.90296 163.973 4.93223 161.946 3.70641 160.186C2.48768 158.433 1.05639 157.005 0.227367 156.24ZM14.8167 163.576C13.8247 163.534 11.7344 163.513 8.9923 164.579C8.9427 164.203 8.87184 163.834 8.77973 163.465C11.7699 162.343 14.0514 162.413 15.1001 162.545C15.7874 162.629 16.1842 163.311 15.915 163.932C15.5111 164.886 14.4482 166.837 12.0249 168.794C11.7274 168.551 11.4156 168.321 11.0896 168.105C13.3854 166.307 14.4128 164.524 14.8167 163.576ZM-15.1017 162.545C-14.0495 162.413 -11.7672 162.343 -8.77848 163.465C-8.87059 163.834 -8.94145 164.203 -8.99105 164.579C-11.7318 163.513 -13.8249 163.534 -14.8126 163.576C-14.4101 164.524 -13.387 166.307 -11.0919 168.105C-11.4193 168.314 -11.7304 168.551 -12.0272 168.732C-14.4498 166.83 -15.5098 164.886 -15.9165 163.932C-16.183 163.311 -15.7848 162.629 -15.1017 162.545ZM-0.870908 189.535C-1.47319 188.629 -2.57855 186.706 -3.10288 183.968C-2.74152 183.836 -2.38723 183.69 -2.03295 183.516C-1.58656 186.086 -0.580397 187.912 0.000625383 188.803C0.581648 187.912 1.58781 186.086 2.0342 183.523C2.38849 183.69 2.74276 183.78 3.10413 183.968C2.5798 186.706 1.48152 188.629 0.872158 189.535C0.44702 190.155 -0.44577 190.155 -0.870908 189.535Z" fill="#BABABA" fill-opacity="0.25"/>
<path d="M-3.46425 218.372C-3.46425 216.526 -1.87707 215.028 -0.0631449 215.028C1.87832 215.028 3.40173 216.526 3.40173 218.372C3.40173 220.218 1.87832 221.716 -0.0631449 221.716C-1.87707 221.716 -3.46425 220.218 -3.46425 218.372ZM-0.0631449 216.143C-1.25353 216.143 -2.33055 217.139 -2.33055 218.372C-2.33055 219.605 -1.25353 220.602 -0.0631449 220.602C1.25478 220.602 2.26803 219.605 2.26803 218.372C2.26803 217.139 1.25478 216.143 -0.0631449 216.143ZM-1.1685 202.428C-0.552054 201.857 0.390336 201.857 1.00679 202.428C1.86415 203.221 3.35922 204.711 4.64172 206.556C5.91713 208.39 7.03666 210.639 7.03666 212.945C7.03666 213.795 6.88078 214.603 6.59735 215.356C7.52557 215.467 8.43962 215.76 9.28989 216.247C11.3235 217.397 12.7477 219.473 13.7255 221.472C14.7104 223.493 15.2773 225.506 15.5465 226.635C15.7378 227.45 15.2702 228.251 14.4553 228.488C13.3287 228.823 11.2668 229.352 8.99938 229.519C6.74615 229.693 4.20949 229.512 2.17592 228.363C1.25478 227.833 0.489535 227.137 -0.084402 226.328C-0.665424 227.137 -1.42359 227.84 -2.35181 228.363C-4.3783 229.512 -6.92204 229.693 -9.17527 229.526C-11.442 229.352 -13.5018 228.823 -14.6305 228.488C-15.4411 228.251 -15.9116 227.45 -15.7182 226.635C-15.4489 225.506 -14.8835 223.493 -13.9 221.479C-12.9229 219.473 -11.4972 217.397 -9.46579 216.247C-8.60842 215.76 -7.68729 215.467 -6.76616 215.356C-7.0425 214.603 -7.19838 213.795 -7.19838 212.945C-7.19838 210.639 -6.07885 208.391 -4.80344 206.556C-3.52094 204.711 -2.02587 203.221 -1.1685 202.428ZM0.227367 203.24C0.0502257 203.073 -0.275715 203.073 -0.396171 203.24C-1.22519 204.005 -2.6494 205.433 -3.86813 207.186C-5.09395 208.946 -6.06468 210.973 -6.06468 212.945C-6.06468 213.906 -5.83085 214.812 -5.4128 215.613C-5.32777 215.787 -5.33486 215.989 -5.43406 216.157C-5.54034 216.324 -5.72457 216.421 -5.92297 216.421C-6.92913 216.421 -7.95655 216.679 -8.89893 217.209C-9.08316 217.313 -9.2603 217.425 -9.43036 217.55C-10.9042 218.588 -12.0372 220.232 -12.8782 221.96C-13.8121 223.813 -14.3549 225.806 -14.6149 226.893C-14.6716 227.13 -14.5405 227.353 -14.3031 227.422C-13.2148 227.743 -11.2422 228.251 -9.09025 228.412C-6.92204 228.572 -4.65464 228.384 -2.91866 227.394C-1.88415 226.809 -1.09765 225.966 -0.587483 224.998C-0.495369 224.81 -0.296971 224.691 -0.084402 224.691C0.128167 224.691 0.319479 224.81 0.418677 224.998C0.921758 225.966 1.70826 226.809 2.74277 227.394C4.48583 228.384 6.74615 228.572 8.91435 228.412C11.0684 228.251 13.0382 227.743 14.1294 227.422C14.3703 227.353 14.4978 227.13 14.4412 226.893C14.179 225.806 13.6405 223.869 12.7052 221.96C11.7628 220.03 10.4661 218.198 8.73013 217.209C7.78774 216.679 6.76741 216.421 5.75416 216.421C5.55576 216.359 5.37862 216.317 5.27234 216.157C5.10937 215.989 5.16605 215.787 5.25108 215.613C5.60536 214.812 5.90296 213.906 5.90296 212.945C5.90296 210.973 4.93223 208.946 3.70641 207.186C2.48768 205.433 1.05639 204.005 0.227367 203.24ZM14.8167 210.576C13.8247 210.534 11.7344 210.513 8.9923 211.579C8.9427 211.203 8.87184 210.834 8.77973 210.465C11.7699 209.343 14.0514 209.413 15.1001 209.545C15.7874 209.629 16.1842 210.311 15.915 210.932C15.5111 211.886 14.4482 213.837 12.0249 215.794C11.7274 215.551 11.4156 215.321 11.0896 215.105C13.3854 213.307 14.4128 211.524 14.8167 210.576ZM-15.1017 209.545C-14.0495 209.413 -11.7672 209.343 -8.77848 210.465C-8.87059 210.834 -8.94145 211.203 -8.99105 211.579C-11.7318 210.513 -13.8249 210.534 -14.8126 210.576C-14.4101 211.524 -13.387 213.307 -11.0919 215.105C-11.4193 215.314 -11.7304 215.551 -12.0272 215.732C-14.4498 213.83 -15.5098 211.886 -15.9165 210.932C-16.183 210.311 -15.7848 209.629 -15.1017 209.545ZM-0.870908 236.535C-1.47319 235.629 -2.57855 233.706 -3.10288 230.968C-2.74152 230.836 -2.38723 230.69 -2.03295 230.516C-1.58656 233.086 -0.580397 234.912 0.000625383 235.803C0.581648 234.912 1.58781 233.086 2.0342 230.523C2.38849 230.69 2.74276 230.78 3.10413 230.968C2.5798 233.706 1.48152 235.629 0.872158 236.535C0.44702 237.155 -0.44577 237.155 -0.870908 236.535Z" fill="#BABABA" fill-opacity="0.25"/>
<path d="M244.536 27.3722C244.536 25.526 246.123 24.0281 247.937 24.0281C249.878 24.0281 251.402 25.526 251.402 27.3722C251.402 29.2184 249.878 30.7163 247.937 30.7163C246.123 30.7163 244.536 29.2184 244.536 27.3722ZM247.937 25.1428C246.746 25.1428 245.669 26.139 245.669 27.3722C245.669 28.6053 246.746 29.6016 247.937 29.6016C249.255 29.6016 250.268 28.6053 250.268 27.3722C250.268 26.139 249.255 25.1428 247.937 25.1428ZM246.831 11.4277C247.448 10.8574 248.39 10.8574 249.007 11.4277C249.864 12.2212 251.359 13.7114 252.642 15.5563C253.917 17.39 255.037 19.6389 255.037 21.945C255.037 22.7949 254.881 23.6031 254.597 24.3555C255.526 24.467 256.44 24.7596 257.29 25.2473C259.323 26.3968 260.748 28.473 261.726 30.4725C262.71 32.4929 263.277 34.5063 263.547 35.635C263.738 36.4501 263.27 37.2513 262.455 37.4882C261.329 37.8226 259.267 38.3521 256.999 38.5193C254.746 38.6934 252.209 38.5123 250.176 37.3628C249.255 36.8333 248.49 36.1366 247.916 35.3284C247.335 36.1366 246.576 36.8402 245.648 37.3628C243.622 38.5123 241.078 38.6934 238.825 38.5262C236.558 38.3521 234.498 37.8226 233.369 37.4882C232.559 37.2513 232.088 36.4501 232.282 35.635C232.551 34.5063 233.117 32.4929 234.1 30.4794C235.077 28.473 236.503 26.3968 238.534 25.2473C239.392 24.7596 240.313 24.467 241.234 24.3555C240.958 23.6031 240.802 22.7949 240.802 21.945C240.802 19.6389 241.921 17.3907 243.197 15.5563C244.479 13.7114 245.974 12.2212 246.831 11.4277ZM248.227 12.24C248.05 12.0728 247.724 12.0728 247.604 12.24C246.775 13.005 245.351 14.4332 244.132 16.1861C242.906 17.9459 241.935 19.9733 241.935 21.945C241.935 22.9064 242.169 23.8121 242.587 24.6133C242.672 24.7875 242.665 24.9895 242.566 25.1567C242.46 25.3239 242.275 25.4214 242.077 25.4214C241.071 25.4214 240.043 25.6792 239.101 26.2087C238.917 26.3132 238.74 26.4247 238.57 26.5501C237.096 27.5882 235.963 29.2324 235.122 30.9602C234.188 32.8134 233.645 34.8059 233.385 35.8927C233.328 36.1296 233.459 36.3526 233.697 36.4222C234.785 36.7427 236.758 37.2513 238.91 37.4115C241.078 37.5718 243.345 37.3837 245.081 36.3944C246.116 35.8091 246.902 34.9661 247.413 33.9977C247.505 33.8096 247.703 33.6912 247.916 33.6912C248.128 33.6912 248.319 33.8096 248.419 33.9977C248.922 34.9661 249.708 35.8091 250.743 36.3944C252.486 37.3837 254.746 37.5718 256.914 37.4115C259.068 37.2513 261.038 36.7427 262.129 36.4222C262.37 36.3526 262.498 36.1296 262.441 35.8927C262.179 34.8059 261.64 32.8691 260.705 30.9602C259.763 29.0303 258.466 27.198 256.73 26.2087C255.788 25.6792 254.767 25.4214 253.754 25.4214C253.556 25.3587 253.379 25.3169 253.272 25.1567C253.109 24.9895 253.166 24.7875 253.251 24.6133C253.605 23.8121 253.903 22.9064 253.903 21.945C253.903 19.9733 252.932 17.9459 251.706 16.1861C250.488 14.4332 249.056 13.005 248.227 12.24ZM262.817 19.5762C261.825 19.5344 259.734 19.5135 256.992 20.5794C256.943 20.2032 256.872 19.834 256.78 19.4647C259.77 18.3431 262.051 18.4127 263.1 18.5451C263.787 18.6287 264.184 19.3115 263.915 19.9315C263.511 20.886 262.448 22.8367 260.025 24.7944C259.727 24.5506 259.416 24.3207 259.09 24.1047C261.385 22.3072 262.413 20.5237 262.817 19.5762ZM232.898 18.5451C233.951 18.4127 236.233 18.3431 239.222 19.4647C239.129 19.834 239.059 20.2032 239.009 20.5794C236.268 19.5135 234.175 19.5344 233.187 19.5762C233.59 20.5237 234.613 22.3072 236.908 24.1047C236.581 24.3137 236.27 24.5506 235.973 24.7317C233.55 22.8298 232.49 20.886 232.083 19.9315C231.817 19.3115 232.215 18.6287 232.898 18.5451ZM247.129 45.535C246.527 44.6293 245.421 42.7064 244.897 39.9684C245.258 39.836 245.613 39.6897 245.967 39.5155C246.413 42.0863 247.42 43.9117 248.001 44.8034C248.582 43.9117 249.588 42.0863 250.034 39.5225C250.388 39.6897 250.743 39.7803 251.104 39.9684C250.58 42.7064 249.482 44.6293 248.872 45.535C248.447 46.155 247.554 46.155 247.129 45.535Z" fill="#BABABA" fill-opacity="0.25"/>
<path d="M120.536 27.3722C120.536 25.526 122.123 24.0281 123.937 24.0281C125.878 24.0281 127.402 25.526 127.402 27.3722C127.402 29.2184 125.878 30.7163 123.937 30.7163C122.123 30.7163 120.536 29.2184 120.536 27.3722ZM123.937 25.1428C122.746 25.1428 121.669 26.139 121.669 27.3722C121.669 28.6053 122.746 29.6016 123.937 29.6016C125.255 29.6016 126.268 28.6053 126.268 27.3722C126.268 26.139 125.255 25.1428 123.937 25.1428ZM122.831 11.4277C123.448 10.8574 124.39 10.8574 125.007 11.4277C125.864 12.2212 127.359 13.7114 128.642 15.5563C129.917 17.39 131.037 19.6389 131.037 21.945C131.037 22.7949 130.881 23.6031 130.597 24.3555C131.526 24.467 132.44 24.7596 133.29 25.2473C135.323 26.3968 136.748 28.473 137.726 30.4725C138.71 32.4929 139.277 34.5063 139.547 35.635C139.738 36.4501 139.27 37.2513 138.455 37.4882C137.329 37.8226 135.267 38.3521 132.999 38.5193C130.746 38.6934 128.209 38.5123 126.176 37.3628C125.255 36.8333 124.49 36.1366 123.916 35.3284C123.335 36.1366 122.576 36.8402 121.648 37.3628C119.622 38.5123 117.078 38.6934 114.825 38.5262C112.558 38.3521 110.498 37.8226 109.369 37.4882C108.559 37.2513 108.088 36.4501 108.282 35.635C108.551 34.5063 109.117 32.4929 110.1 30.4794C111.077 28.473 112.503 26.3968 114.534 25.2473C115.392 24.7596 116.313 24.467 117.234 24.3555C116.958 23.6031 116.802 22.7949 116.802 21.945C116.802 19.6389 117.921 17.3907 119.197 15.5563C120.479 13.7114 121.974 12.2212 122.831 11.4277ZM124.227 12.24C124.05 12.0728 123.724 12.0728 123.604 12.24C122.775 13.005 121.351 14.4332 120.132 16.1861C118.906 17.9459 117.935 19.9733 117.935 21.945C117.935 22.9064 118.169 23.8121 118.587 24.6133C118.672 24.7875 118.665 24.9895 118.566 25.1567C118.46 25.3239 118.275 25.4214 118.077 25.4214C117.071 25.4214 116.043 25.6792 115.101 26.2087C114.917 26.3132 114.74 26.4247 114.57 26.5501C113.096 27.5882 111.963 29.2324 111.122 30.9602C110.188 32.8134 109.645 34.8059 109.385 35.8927C109.328 36.1296 109.459 36.3526 109.697 36.4222C110.785 36.7427 112.758 37.2513 114.91 37.4115C117.078 37.5718 119.345 37.3837 121.081 36.3944C122.116 35.8091 122.902 34.9661 123.413 33.9977C123.505 33.8096 123.703 33.6912 123.916 33.6912C124.128 33.6912 124.319 33.8096 124.419 33.9977C124.922 34.9661 125.708 35.8091 126.743 36.3944C128.486 37.3837 130.746 37.5718 132.914 37.4115C135.068 37.2513 137.038 36.7427 138.129 36.4222C138.37 36.3526 138.498 36.1296 138.441 35.8927C138.179 34.8059 137.64 32.8691 136.705 30.9602C135.763 29.0303 134.466 27.198 132.73 26.2087C131.788 25.6792 130.767 25.4214 129.754 25.4214C129.556 25.3587 129.379 25.3169 129.272 25.1567C129.109 24.9895 129.166 24.7875 129.251 24.6133C129.605 23.8121 129.903 22.9064 129.903 21.945C129.903 19.9733 128.932 17.9459 127.706 16.1861C126.488 14.4332 125.056 13.005 124.227 12.24ZM138.817 19.5762C137.825 19.5344 135.734 19.5135 132.992 20.5794C132.943 20.2032 132.872 19.834 132.78 19.4647C135.77 18.3431 138.051 18.4127 139.1 18.5451C139.787 18.6287 140.184 19.3115 139.915 19.9315C139.511 20.886 138.448 22.8367 136.025 24.7944C135.727 24.5506 135.416 24.3207 135.09 24.1047C137.385 22.3072 138.413 20.5237 138.817 19.5762ZM108.898 18.5451C109.951 18.4127 112.233 18.3431 115.222 19.4647C115.129 19.834 115.059 20.2032 115.009 20.5794C112.268 19.5135 110.175 19.5344 109.187 19.5762C109.59 20.5237 110.613 22.3072 112.908 24.1047C112.581 24.3137 112.27 24.5506 111.973 24.7317C109.55 22.8298 108.49 20.886 108.083 19.9315C107.817 19.3115 108.215 18.6287 108.898 18.5451ZM123.129 45.535C122.527 44.6293 121.421 42.7064 120.897 39.9684C121.258 39.836 121.613 39.6897 121.967 39.5155C122.413 42.0863 123.42 43.9117 124.001 44.8034C124.582 43.9117 125.588 42.0863 126.034 39.5225C126.388 39.6897 126.743 39.7803 127.104 39.9684C126.58 42.7064 125.482 44.6293 124.872 45.535C124.447 46.155 123.554 46.155 123.129 45.535Z" fill="#BABABA" fill-opacity="0.25"/>
<path d="M58.5357 27.3722C58.5357 25.526 60.1229 24.0281 61.9369 24.0281C63.8783 24.0281 65.4017 25.526 65.4017 27.3722C65.4017 29.2184 63.8783 30.7163 61.9369 30.7163C60.1229 30.7163 58.5357 29.2184 58.5357 27.3722ZM61.9369 25.1428C60.7465 25.1428 59.6695 26.139 59.6695 27.3722C59.6695 28.6053 60.7465 29.6016 61.9369 29.6016C63.2548 29.6016 64.268 28.6053 64.268 27.3722C64.268 26.139 63.2548 25.1428 61.9369 25.1428ZM60.8315 11.4277C61.4479 10.8574 62.3903 10.8574 63.0068 11.4277C63.8641 12.2212 65.3592 13.7114 66.6417 15.5563C67.9171 17.39 69.0367 19.6389 69.0367 21.945C69.0367 22.7949 68.8808 23.6031 68.5974 24.3555C69.5256 24.467 70.4396 24.7596 71.2899 25.2473C73.3235 26.3968 74.7477 28.473 75.7255 30.4725C76.7104 32.4929 77.2773 34.5063 77.5465 35.635C77.7378 36.4501 77.2702 37.2513 76.4553 37.4882C75.3287 37.8226 73.2668 38.3521 70.9994 38.5193C68.7462 38.6934 66.2095 38.5123 64.1759 37.3628C63.2548 36.8333 62.4895 36.1366 61.9156 35.3284C61.3346 36.1366 60.5764 36.8402 59.6482 37.3628C57.6217 38.5123 55.078 38.6934 52.8247 38.5262C50.558 38.3521 48.4982 37.8226 47.3695 37.4882C46.5589 37.2513 46.0884 36.4501 46.2818 35.635C46.5511 34.5063 47.1165 32.4929 48.1 30.4794C49.0771 28.473 50.5028 26.3968 52.5342 25.2473C53.3916 24.7596 54.3127 24.467 55.2338 24.3555C54.9575 23.6031 54.8016 22.7949 54.8016 21.945C54.8016 19.6389 55.9211 17.3907 57.1966 15.5563C58.4791 13.7114 59.9741 12.2212 60.8315 11.4277ZM62.2274 12.24C62.0502 12.0728 61.7243 12.0728 61.6038 12.24C60.7748 13.005 59.3506 14.4332 58.1319 16.1861C56.9061 17.9459 55.9353 19.9733 55.9353 21.945C55.9353 22.9064 56.1691 23.8121 56.5872 24.6133C56.6722 24.7875 56.6651 24.9895 56.5659 25.1567C56.4597 25.3239 56.2754 25.4214 56.077 25.4214C55.0709 25.4214 54.0435 25.6792 53.1011 26.2087C52.9168 26.3132 52.7397 26.4247 52.5696 26.5501C51.0958 27.5882 49.9628 29.2324 49.1218 30.9602C48.1879 32.8134 47.6451 34.8059 47.3851 35.8927C47.3284 36.1296 47.4595 36.3526 47.6969 36.4222C48.7852 36.7427 50.7578 37.2513 52.9098 37.4115C55.078 37.5718 57.3454 37.3837 59.0813 36.3944C60.1158 35.8091 60.9024 34.9661 61.4125 33.9977C61.5046 33.8096 61.703 33.6912 61.9156 33.6912C62.1282 33.6912 62.3195 33.8096 62.4187 33.9977C62.9218 34.9661 63.7083 35.8091 64.7428 36.3944C66.4858 37.3837 68.7461 37.5718 70.9144 37.4115C73.0684 37.2513 75.0382 36.7427 76.1294 36.4222C76.3703 36.3526 76.4978 36.1296 76.4412 35.8927C76.179 34.8059 75.6405 32.8691 74.7052 30.9602C73.7628 29.0303 72.4661 27.198 70.7301 26.2087C69.7877 25.6792 68.7674 25.4214 67.7542 25.4214C67.5558 25.3587 67.3786 25.3169 67.2723 25.1567C67.1094 24.9895 67.1661 24.7875 67.2511 24.6133C67.6054 23.8121 67.903 22.9064 67.903 21.945C67.903 19.9733 66.9322 17.9459 65.7064 16.1861C64.4877 14.4332 63.0564 13.005 62.2274 12.24ZM76.8167 19.5762C75.8247 19.5344 73.7344 19.5135 70.9923 20.5794C70.9427 20.2032 70.8718 19.834 70.7797 19.4647C73.7699 18.3431 76.0514 18.4127 77.1001 18.5451C77.7874 18.6287 78.1842 19.3115 77.915 19.9315C77.5111 20.886 76.4482 22.8367 74.0249 24.7944C73.7274 24.5506 73.4156 24.3207 73.0896 24.1047C75.3854 22.3072 76.4128 20.5237 76.8167 19.5762ZM46.8983 18.5451C47.9505 18.4127 50.2328 18.3431 53.2215 19.4647C53.1294 19.834 53.0586 20.2032 53.009 20.5794C50.2682 19.5135 48.1751 19.5344 47.1874 19.5762C47.5899 20.5237 48.613 22.3072 50.9081 24.1047C50.5807 24.3137 50.2696 24.5506 49.9728 24.7317C47.5502 22.8298 46.4902 20.886 46.0835 19.9315C45.817 19.3115 46.2152 18.6287 46.8983 18.5451ZM61.1291 45.535C60.5268 44.6293 59.4215 42.7064 58.8971 39.9684C59.2585 39.836 59.6128 39.6897 59.967 39.5155C60.4134 42.0863 61.4196 43.9117 62.0006 44.8034C62.5816 43.9117 63.5878 42.0863 64.0342 39.5225C64.3885 39.6897 64.7428 39.7803 65.1041 39.9684C64.5798 42.7064 63.4815 44.6293 62.8722 45.535C62.447 46.155 61.5542 46.155 61.1291 45.535Z" fill="#BABABA" fill-opacity="0.25"/>
<path d="M182.536 27.3722C182.536 25.526 184.123 24.0281 185.937 24.0281C187.878 24.0281 189.402 25.526 189.402 27.3722C189.402 29.2184 187.878 30.7163 185.937 30.7163C184.123 30.7163 182.536 29.2184 182.536 27.3722ZM185.937 25.1428C184.746 25.1428 183.669 26.139 183.669 27.3722C183.669 28.6053 184.746 29.6016 185.937 29.6016C187.255 29.6016 188.268 28.6053 188.268 27.3722C188.268 26.139 187.255 25.1428 185.937 25.1428ZM184.831 11.4277C185.448 10.8574 186.39 10.8574 187.007 11.4277C187.864 12.2212 189.359 13.7114 190.642 15.5563C191.917 17.39 193.037 19.6389 193.037 21.945C193.037 22.7949 192.881 23.6031 192.597 24.3555C193.526 24.467 194.44 24.7596 195.29 25.2473C197.323 26.3968 198.748 28.473 199.726 30.4725C200.71 32.4929 201.277 34.5063 201.547 35.635C201.738 36.4501 201.27 37.2513 200.455 37.4882C199.329 37.8226 197.267 38.3521 194.999 38.5193C192.746 38.6934 190.209 38.5123 188.176 37.3628C187.255 36.8333 186.49 36.1366 185.916 35.3284C185.335 36.1366 184.576 36.8402 183.648 37.3628C181.622 38.5123 179.078 38.6934 176.825 38.5262C174.558 38.3521 172.498 37.8226 171.369 37.4882C170.559 37.2513 170.088 36.4501 170.282 35.635C170.551 34.5063 171.117 32.4929 172.1 30.4794C173.077 28.473 174.503 26.3968 176.534 25.2473C177.392 24.7596 178.313 24.467 179.234 24.3555C178.958 23.6031 178.802 22.7949 178.802 21.945C178.802 19.6389 179.921 17.3907 181.197 15.5563C182.479 13.7114 183.974 12.2212 184.831 11.4277ZM186.227 12.24C186.05 12.0728 185.724 12.0728 185.604 12.24C184.775 13.005 183.351 14.4332 182.132 16.1861C180.906 17.9459 179.935 19.9733 179.935 21.945C179.935 22.9064 180.169 23.8121 180.587 24.6133C180.672 24.7875 180.665 24.9895 180.566 25.1567C180.46 25.3239 180.275 25.4214 180.077 25.4214C179.071 25.4214 178.043 25.6792 177.101 26.2087C176.917 26.3132 176.74 26.4247 176.57 26.5501C175.096 27.5882 173.963 29.2324 173.122 30.9602C172.188 32.8134 171.645 34.8059 171.385 35.8927C171.328 36.1296 171.459 36.3526 171.697 36.4222C172.785 36.7427 174.758 37.2513 176.91 37.4115C179.078 37.5718 181.345 37.3837 183.081 36.3944C184.116 35.8091 184.902 34.9661 185.413 33.9977C185.505 33.8096 185.703 33.6912 185.916 33.6912C186.128 33.6912 186.319 33.8096 186.419 33.9977C186.922 34.9661 187.708 35.8091 188.743 36.3944C190.486 37.3837 192.746 37.5718 194.914 37.4115C197.068 37.2513 199.038 36.7427 200.129 36.4222C200.37 36.3526 200.498 36.1296 200.441 35.8927C200.179 34.8059 199.64 32.8691 198.705 30.9602C197.763 29.0303 196.466 27.198 194.73 26.2087C193.788 25.6792 192.767 25.4214 191.754 25.4214C191.556 25.3587 191.379 25.3169 191.272 25.1567C191.109 24.9895 191.166 24.7875 191.251 24.6133C191.605 23.8121 191.903 22.9064 191.903 21.945C191.903 19.9733 190.932 17.9459 189.706 16.1861C188.488 14.4332 187.056 13.005 186.227 12.24ZM200.817 19.5762C199.825 19.5344 197.734 19.5135 194.992 20.5794C194.943 20.2032 194.872 19.834 194.78 19.4647C197.77 18.3431 200.051 18.4127 201.1 18.5451C201.787 18.6287 202.184 19.3115 201.915 19.9315C201.511 20.886 200.448 22.8367 198.025 24.7944C197.727 24.5506 197.416 24.3207 197.09 24.1047C199.385 22.3072 200.413 20.5237 200.817 19.5762ZM170.898 18.5451C171.951 18.4127 174.233 18.3431 177.222 19.4647C177.129 19.834 177.059 20.2032 177.009 20.5794C174.268 19.5135 172.175 19.5344 171.187 19.5762C171.59 20.5237 172.613 22.3072 174.908 24.1047C174.581 24.3137 174.27 24.5506 173.973 24.7317C171.55 22.8298 170.49 20.886 170.083 19.9315C169.817 19.3115 170.215 18.6287 170.898 18.5451ZM185.129 45.535C184.527 44.6293 183.421 42.7064 182.897 39.9684C183.258 39.836 183.613 39.6897 183.967 39.5155C184.413 42.0863 185.42 43.9117 186.001 44.8034C186.582 43.9117 187.588 42.0863 188.034 39.5225C188.388 39.6897 188.743 39.7803 189.104 39.9684C188.58 42.7064 187.482 44.6293 186.872 45.535C186.447 46.155 185.554 46.155 185.129 45.535Z" fill="#BABABA" fill-opacity="0.25"/>
<path d="M244.536 123.372C244.536 121.526 246.123 120.028 247.937 120.028C249.878 120.028 251.402 121.526 251.402 123.372C251.402 125.218 249.878 126.716 247.937 126.716C246.123 126.716 244.536 125.218 244.536 123.372ZM247.937 121.143C246.746 121.143 245.669 122.139 245.669 123.372C245.669 124.605 246.746 125.602 247.937 125.602C249.255 125.602 250.268 124.605 250.268 123.372C250.268 122.139 249.255 121.143 247.937 121.143ZM246.831 107.428C247.448 106.857 248.39 106.857 249.007 107.428C249.864 108.221 251.359 109.711 252.642 111.556C253.917 113.39 255.037 115.639 255.037 117.945C255.037 118.795 254.881 119.603 254.597 120.356C255.526 120.467 256.44 120.76 257.29 121.247C259.323 122.397 260.748 124.473 261.726 126.472C262.71 128.493 263.277 130.506 263.547 131.635C263.738 132.45 263.27 133.251 262.455 133.488C261.329 133.823 259.267 134.352 256.999 134.519C254.746 134.693 252.209 134.512 250.176 133.363C249.255 132.833 248.49 132.137 247.916 131.328C247.335 132.137 246.576 132.84 245.648 133.363C243.622 134.512 241.078 134.693 238.825 134.526C236.558 134.352 234.498 133.823 233.369 133.488C232.559 133.251 232.088 132.45 232.282 131.635C232.551 130.506 233.117 128.493 234.1 126.479C235.077 124.473 236.503 122.397 238.534 121.247C239.392 120.76 240.313 120.467 241.234 120.356C240.958 119.603 240.802 118.795 240.802 117.945C240.802 115.639 241.921 113.391 243.197 111.556C244.479 109.711 245.974 108.221 246.831 107.428ZM248.227 108.24C248.05 108.073 247.724 108.073 247.604 108.24C246.775 109.005 245.351 110.433 244.132 112.186C242.906 113.946 241.935 115.973 241.935 117.945C241.935 118.906 242.169 119.812 242.587 120.613C242.672 120.787 242.665 120.989 242.566 121.157C242.46 121.324 242.275 121.421 242.077 121.421C241.071 121.421 240.043 121.679 239.101 122.209C238.917 122.313 238.74 122.425 238.57 122.55C237.096 123.588 235.963 125.232 235.122 126.96C234.188 128.813 233.645 130.806 233.385 131.893C233.328 132.13 233.459 132.353 233.697 132.422C234.785 132.743 236.758 133.251 238.91 133.412C241.078 133.572 243.345 133.384 245.081 132.394C246.116 131.809 246.902 130.966 247.413 129.998C247.505 129.81 247.703 129.691 247.916 129.691C248.128 129.691 248.319 129.81 248.419 129.998C248.922 130.966 249.708 131.809 250.743 132.394C252.486 133.384 254.746 133.572 256.914 133.412C259.068 133.251 261.038 132.743 262.129 132.422C262.37 132.353 262.498 132.13 262.441 131.893C262.179 130.806 261.64 128.869 260.705 126.96C259.763 125.03 258.466 123.198 256.73 122.209C255.788 121.679 254.767 121.421 253.754 121.421C253.556 121.359 253.379 121.317 253.272 121.157C253.109 120.989 253.166 120.787 253.251 120.613C253.605 119.812 253.903 118.906 253.903 117.945C253.903 115.973 252.932 113.946 251.706 112.186C250.488 110.433 249.056 109.005 248.227 108.24ZM262.817 115.576C261.825 115.534 259.734 115.513 256.992 116.579C256.943 116.203 256.872 115.834 256.78 115.465C259.77 114.343 262.051 114.413 263.1 114.545C263.787 114.629 264.184 115.311 263.915 115.932C263.511 116.886 262.448 118.837 260.025 120.794C259.727 120.551 259.416 120.321 259.09 120.105C261.385 118.307 262.413 116.524 262.817 115.576ZM232.898 114.545C233.951 114.413 236.233 114.343 239.222 115.465C239.129 115.834 239.059 116.203 239.009 116.579C236.268 115.513 234.175 115.534 233.187 115.576C233.59 116.524 234.613 118.307 236.908 120.105C236.581 120.314 236.27 120.551 235.973 120.732C233.55 118.83 232.49 116.886 232.083 115.932C231.817 115.311 232.215 114.629 232.898 114.545ZM247.129 141.535C246.527 140.629 245.421 138.706 244.897 135.968C245.258 135.836 245.613 135.69 245.967 135.516C246.413 138.086 247.42 139.912 248.001 140.803C248.582 139.912 249.588 138.086 250.034 135.523C250.388 135.69 250.743 135.78 251.104 135.968C250.58 138.706 249.482 140.629 248.872 141.535C248.447 142.155 247.554 142.155 247.129 141.535Z" fill="#BABABA" fill-opacity="0.25"/>
<path d="M244.536 75.3722C244.536 73.526 246.123 72.0281 247.937 72.0281C249.878 72.0281 251.402 73.526 251.402 75.3722C251.402 77.2184 249.878 78.7163 247.937 78.7163C246.123 78.7163 244.536 77.2184 244.536 75.3722ZM247.937 73.1428C246.746 73.1428 245.669 74.139 245.669 75.3722C245.669 76.6053 246.746 77.6016 247.937 77.6016C249.255 77.6016 250.268 76.6053 250.268 75.3722C250.268 74.139 249.255 73.1428 247.937 73.1428ZM246.831 59.4277C247.448 58.8574 248.39 58.8574 249.007 59.4277C249.864 60.2212 251.359 61.7114 252.642 63.5563C253.917 65.39 255.037 67.6389 255.037 69.945C255.037 70.7949 254.881 71.6031 254.597 72.3555C255.526 72.467 256.44 72.7596 257.29 73.2473C259.323 74.3968 260.748 76.473 261.726 78.4725C262.71 80.4929 263.277 82.5063 263.547 83.635C263.738 84.4501 263.27 85.2513 262.455 85.4882C261.329 85.8226 259.267 86.3521 256.999 86.5193C254.746 86.6934 252.209 86.5123 250.176 85.3628C249.255 84.8333 248.49 84.1366 247.916 83.3284C247.335 84.1366 246.576 84.8402 245.648 85.3628C243.622 86.5123 241.078 86.6934 238.825 86.5262C236.558 86.3521 234.498 85.8226 233.369 85.4882C232.559 85.2513 232.088 84.4501 232.282 83.635C232.551 82.5063 233.117 80.4929 234.1 78.4794C235.077 76.473 236.503 74.3968 238.534 73.2473C239.392 72.7596 240.313 72.467 241.234 72.3555C240.958 71.6031 240.802 70.7949 240.802 69.945C240.802 67.6389 241.921 65.3907 243.197 63.5563C244.479 61.7114 245.974 60.2212 246.831 59.4277ZM248.227 60.24C248.05 60.0728 247.724 60.0728 247.604 60.24C246.775 61.005 245.351 62.4332 244.132 64.1861C242.906 65.9459 241.935 67.9733 241.935 69.945C241.935 70.9064 242.169 71.8121 242.587 72.6133C242.672 72.7875 242.665 72.9895 242.566 73.1567C242.46 73.3239 242.275 73.4214 242.077 73.4214C241.071 73.4214 240.043 73.6792 239.101 74.2087C238.917 74.3132 238.74 74.4247 238.57 74.5501C237.096 75.5882 235.963 77.2324 235.122 78.9602C234.188 80.8134 233.645 82.8059 233.385 83.8927C233.328 84.1296 233.459 84.3526 233.697 84.4222C234.785 84.7427 236.758 85.2513 238.91 85.4115C241.078 85.5718 243.345 85.3837 245.081 84.3944C246.116 83.8091 246.902 82.9661 247.413 81.9977C247.505 81.8096 247.703 81.6912 247.916 81.6912C248.128 81.6912 248.319 81.8096 248.419 81.9977C248.922 82.9661 249.708 83.8091 250.743 84.3944C252.486 85.3837 254.746 85.5718 256.914 85.4115C259.068 85.2513 261.038 84.7427 262.129 84.4222C262.37 84.3526 262.498 84.1296 262.441 83.8927C262.179 82.8059 261.64 80.8691 260.705 78.9602C259.763 77.0303 258.466 75.198 256.73 74.2087C255.788 73.6792 254.767 73.4214 253.754 73.4214C253.556 73.3587 253.379 73.3169 253.272 73.1567C253.109 72.9895 253.166 72.7875 253.251 72.6133C253.605 71.8121 253.903 70.9064 253.903 69.945C253.903 67.9733 252.932 65.9459 251.706 64.1861C250.488 62.4332 249.056 61.005 248.227 60.24ZM262.817 67.5762C261.825 67.5344 259.734 67.5135 256.992 68.5794C256.943 68.2032 256.872 67.834 256.78 67.4647C259.77 66.3431 262.051 66.4127 263.1 66.5451C263.787 66.6287 264.184 67.3115 263.915 67.9315C263.511 68.886 262.448 70.8367 260.025 72.7944C259.727 72.5506 259.416 72.3207 259.09 72.1047C261.385 70.3072 262.413 68.5237 262.817 67.5762ZM232.898 66.5451C233.951 66.4127 236.233 66.3431 239.222 67.4647C239.129 67.834 239.059 68.2032 239.009 68.5794C236.268 67.5135 234.175 67.5344 233.187 67.5762C233.59 68.5237 234.613 70.3072 236.908 72.1047C236.581 72.3137 236.27 72.5506 235.973 72.7317C233.55 70.8298 232.49 68.886 232.083 67.9315C231.817 67.3115 232.215 66.6287 232.898 66.5451ZM247.129 93.535C246.527 92.6293 245.421 90.7064 244.897 87.9684C245.258 87.836 245.613 87.6897 245.967 87.5155C246.413 90.0863 247.42 91.9117 248.001 92.8034C248.582 91.9117 249.588 90.0863 250.034 87.5225C250.388 87.6897 250.743 87.7803 251.104 87.9684C250.58 90.7064 249.482 92.6293 248.872 93.535C248.447 94.155 247.554 94.155 247.129 93.535Z" fill="#BABABA" fill-opacity="0.25"/>
<path d="M244.536 171.372C244.536 169.526 246.123 168.028 247.937 168.028C249.878 168.028 251.402 169.526 251.402 171.372C251.402 173.218 249.878 174.716 247.937 174.716C246.123 174.716 244.536 173.218 244.536 171.372ZM247.937 169.143C246.746 169.143 245.669 170.139 245.669 171.372C245.669 172.605 246.746 173.602 247.937 173.602C249.255 173.602 250.268 172.605 250.268 171.372C250.268 170.139 249.255 169.143 247.937 169.143ZM246.831 155.428C247.448 154.857 248.39 154.857 249.007 155.428C249.864 156.221 251.359 157.711 252.642 159.556C253.917 161.39 255.037 163.639 255.037 165.945C255.037 166.795 254.881 167.603 254.597 168.356C255.526 168.467 256.44 168.76 257.29 169.247C259.323 170.397 260.748 172.473 261.726 174.472C262.71 176.493 263.277 178.506 263.547 179.635C263.738 180.45 263.27 181.251 262.455 181.488C261.329 181.823 259.267 182.352 256.999 182.519C254.746 182.693 252.209 182.512 250.176 181.363C249.255 180.833 248.49 180.137 247.916 179.328C247.335 180.137 246.576 180.84 245.648 181.363C243.622 182.512 241.078 182.693 238.825 182.526C236.558 182.352 234.498 181.823 233.369 181.488C232.559 181.251 232.088 180.45 232.282 179.635C232.551 178.506 233.117 176.493 234.1 174.479C235.077 172.473 236.503 170.397 238.534 169.247C239.392 168.76 240.313 168.467 241.234 168.356C240.958 167.603 240.802 166.795 240.802 165.945C240.802 163.639 241.921 161.391 243.197 159.556C244.479 157.711 245.974 156.221 246.831 155.428ZM248.227 156.24C248.05 156.073 247.724 156.073 247.604 156.24C246.775 157.005 245.351 158.433 244.132 160.186C242.906 161.946 241.935 163.973 241.935 165.945C241.935 166.906 242.169 167.812 242.587 168.613C242.672 168.787 242.665 168.989 242.566 169.157C242.46 169.324 242.275 169.421 242.077 169.421C241.071 169.421 240.043 169.679 239.101 170.209C238.917 170.313 238.74 170.425 238.57 170.55C237.096 171.588 235.963 173.232 235.122 174.96C234.188 176.813 233.645 178.806 233.385 179.893C233.328 180.13 233.459 180.353 233.697 180.422C234.785 180.743 236.758 181.251 238.91 181.412C241.078 181.572 243.345 181.384 245.081 180.394C246.116 179.809 246.902 178.966 247.413 177.998C247.505 177.81 247.703 177.691 247.916 177.691C248.128 177.691 248.319 177.81 248.419 177.998C248.922 178.966 249.708 179.809 250.743 180.394C252.486 181.384 254.746 181.572 256.914 181.412C259.068 181.251 261.038 180.743 262.129 180.422C262.37 180.353 262.498 180.13 262.441 179.893C262.179 178.806 261.64 176.869 260.705 174.96C259.763 173.03 258.466 171.198 256.73 170.209C255.788 169.679 254.767 169.421 253.754 169.421C253.556 169.359 253.379 169.317 253.272 169.157C253.109 168.989 253.166 168.787 253.251 168.613C253.605 167.812 253.903 166.906 253.903 165.945C253.903 163.973 252.932 161.946 251.706 160.186C250.488 158.433 249.056 157.005 248.227 156.24ZM262.817 163.576C261.825 163.534 259.734 163.513 256.992 164.579C256.943 164.203 256.872 163.834 256.78 163.465C259.77 162.343 262.051 162.413 263.1 162.545C263.787 162.629 264.184 163.311 263.915 163.932C263.511 164.886 262.448 166.837 260.025 168.794C259.727 168.551 259.416 168.321 259.09 168.105C261.385 166.307 262.413 164.524 262.817 163.576ZM232.898 162.545C233.951 162.413 236.233 162.343 239.222 163.465C239.129 163.834 239.059 164.203 239.009 164.579C236.268 163.513 234.175 163.534 233.187 163.576C233.59 164.524 234.613 166.307 236.908 168.105C236.581 168.314 236.27 168.551 235.973 168.732C233.55 166.83 232.49 164.886 232.083 163.932C231.817 163.311 232.215 162.629 232.898 162.545ZM247.129 189.535C246.527 188.629 245.421 186.706 244.897 183.968C245.258 183.836 245.613 183.69 245.967 183.516C246.413 186.086 247.42 187.912 248.001 188.803C248.582 187.912 249.588 186.086 250.034 183.523C250.388 183.69 250.743 183.78 251.104 183.968C250.58 186.706 249.482 188.629 248.872 189.535C248.447 190.155 247.554 190.155 247.129 189.535Z" fill="#BABABA" fill-opacity="0.25"/>
<path d="M120.536 123.372C120.536 121.526 122.123 120.028 123.937 120.028C125.878 120.028 127.402 121.526 127.402 123.372C127.402 125.218 125.878 126.716 123.937 126.716C122.123 126.716 120.536 125.218 120.536 123.372ZM123.937 121.143C122.746 121.143 121.669 122.139 121.669 123.372C121.669 124.605 122.746 125.602 123.937 125.602C125.255 125.602 126.268 124.605 126.268 123.372C126.268 122.139 125.255 121.143 123.937 121.143ZM122.831 107.428C123.448 106.857 124.39 106.857 125.007 107.428C125.864 108.221 127.359 109.711 128.642 111.556C129.917 113.39 131.037 115.639 131.037 117.945C131.037 118.795 130.881 119.603 130.597 120.356C131.526 120.467 132.44 120.76 133.29 121.247C135.323 122.397 136.748 124.473 137.726 126.472C138.71 128.493 139.277 130.506 139.547 131.635C139.738 132.45 139.27 133.251 138.455 133.488C137.329 133.823 135.267 134.352 132.999 134.519C130.746 134.693 128.209 134.512 126.176 133.363C125.255 132.833 124.49 132.137 123.916 131.328C123.335 132.137 122.576 132.84 121.648 133.363C119.622 134.512 117.078 134.693 114.825 134.526C112.558 134.352 110.498 133.823 109.369 133.488C108.559 133.251 108.088 132.45 108.282 131.635C108.551 130.506 109.117 128.493 110.1 126.479C111.077 124.473 112.503 122.397 114.534 121.247C115.392 120.76 116.313 120.467 117.234 120.356C116.958 119.603 116.802 118.795 116.802 117.945C116.802 115.639 117.921 113.391 119.197 111.556C120.479 109.711 121.974 108.221 122.831 107.428ZM124.227 108.24C124.05 108.073 123.724 108.073 123.604 108.24C122.775 109.005 121.351 110.433 120.132 112.186C118.906 113.946 117.935 115.973 117.935 117.945C117.935 118.906 118.169 119.812 118.587 120.613C118.672 120.787 118.665 120.989 118.566 121.157C118.46 121.324 118.275 121.421 118.077 121.421C117.071 121.421 116.043 121.679 115.101 122.209C114.917 122.313 114.74 122.425 114.57 122.55C113.096 123.588 111.963 125.232 111.122 126.96C110.188 128.813 109.645 130.806 109.385 131.893C109.328 132.13 109.459 132.353 109.697 132.422C110.785 132.743 112.758 133.251 114.91 133.412C117.078 133.572 119.345 133.384 121.081 132.394C122.116 131.809 122.902 130.966 123.413 129.998C123.505 129.81 123.703 129.691 123.916 129.691C124.128 129.691 124.319 129.81 124.419 129.998C124.922 130.966 125.708 131.809 126.743 132.394C128.486 133.384 130.746 133.572 132.914 133.412C135.068 133.251 137.038 132.743 138.129 132.422C138.37 132.353 138.498 132.13 138.441 131.893C138.179 130.806 137.64 128.869 136.705 126.96C135.763 125.03 134.466 123.198 132.73 122.209C131.788 121.679 130.767 121.421 129.754 121.421C129.556 121.359 129.379 121.317 129.272 121.157C129.109 120.989 129.166 120.787 129.251 120.613C129.605 119.812 129.903 118.906 129.903 117.945C129.903 115.973 128.932 113.946 127.706 112.186C126.488 110.433 125.056 109.005 124.227 108.24ZM138.817 115.576C137.825 115.534 135.734 115.513 132.992 116.579C132.943 116.203 132.872 115.834 132.78 115.465C135.77 114.343 138.051 114.413 139.1 114.545C139.787 114.629 140.184 115.311 139.915 115.932C139.511 116.886 138.448 118.837 136.025 120.794C135.727 120.551 135.416 120.321 135.09 120.105C137.385 118.307 138.413 116.524 138.817 115.576ZM108.898 114.545C109.951 114.413 112.233 114.343 115.222 115.465C115.129 115.834 115.059 116.203 115.009 116.579C112.268 115.513 110.175 115.534 109.187 115.576C109.59 116.524 110.613 118.307 112.908 120.105C112.581 120.314 112.27 120.551 111.973 120.732C109.55 118.83 108.49 116.886 108.083 115.932C107.817 115.311 108.215 114.629 108.898 114.545ZM123.129 141.535C122.527 140.629 121.421 138.706 120.897 135.968C121.258 135.836 121.613 135.69 121.967 135.516C122.413 138.086 123.42 139.912 124.001 140.803C124.582 139.912 125.588 138.086 126.034 135.523C126.388 135.69 126.743 135.78 127.104 135.968C126.58 138.706 125.482 140.629 124.872 141.535C124.447 142.155 123.554 142.155 123.129 141.535Z" fill="#BABABA" fill-opacity="0.25"/>
<path d="M120.536 75.3722C120.536 73.526 122.123 72.0281 123.937 72.0281C125.878 72.0281 127.402 73.526 127.402 75.3722C127.402 77.2184 125.878 78.7163 123.937 78.7163C122.123 78.7163 120.536 77.2184 120.536 75.3722ZM123.937 73.1428C122.746 73.1428 121.669 74.139 121.669 75.3722C121.669 76.6053 122.746 77.6016 123.937 77.6016C125.255 77.6016 126.268 76.6053 126.268 75.3722C126.268 74.139 125.255 73.1428 123.937 73.1428ZM122.831 59.4277C123.448 58.8574 124.39 58.8574 125.007 59.4277C125.864 60.2212 127.359 61.7114 128.642 63.5563C129.917 65.39 131.037 67.6389 131.037 69.945C131.037 70.7949 130.881 71.6031 130.597 72.3555C131.526 72.467 132.44 72.7596 133.29 73.2473C135.323 74.3968 136.748 76.473 137.726 78.4725C138.71 80.4929 139.277 82.5063 139.547 83.635C139.738 84.4501 139.27 85.2513 138.455 85.4882C137.329 85.8226 135.267 86.3521 132.999 86.5193C130.746 86.6934 128.209 86.5123 126.176 85.3628C125.255 84.8333 124.49 84.1366 123.916 83.3284C123.335 84.1366 122.576 84.8402 121.648 85.3628C119.622 86.5123 117.078 86.6934 114.825 86.5262C112.558 86.3521 110.498 85.8226 109.369 85.4882C108.559 85.2513 108.088 84.4501 108.282 83.635C108.551 82.5063 109.117 80.4929 110.1 78.4794C111.077 76.473 112.503 74.3968 114.534 73.2473C115.392 72.7596 116.313 72.467 117.234 72.3555C116.958 71.6031 116.802 70.7949 116.802 69.945C116.802 67.6389 117.921 65.3907 119.197 63.5563C120.479 61.7114 121.974 60.2212 122.831 59.4277ZM124.227 60.24C124.05 60.0728 123.724 60.0728 123.604 60.24C122.775 61.005 121.351 62.4332 120.132 64.1861C118.906 65.9459 117.935 67.9733 117.935 69.945C117.935 70.9064 118.169 71.8121 118.587 72.6133C118.672 72.7875 118.665 72.9895 118.566 73.1567C118.46 73.3239 118.275 73.4214 118.077 73.4214C117.071 73.4214 116.043 73.6792 115.101 74.2087C114.917 74.3132 114.74 74.4247 114.57 74.5501C113.096 75.5882 111.963 77.2324 111.122 78.9602C110.188 80.8134 109.645 82.8059 109.385 83.8927C109.328 84.1296 109.459 84.3526 109.697 84.4222C110.785 84.7427 112.758 85.2513 114.91 85.4115C117.078 85.5718 119.345 85.3837 121.081 84.3944C122.116 83.8091 122.902 82.9661 123.413 81.9977C123.505 81.8096 123.703 81.6912 123.916 81.6912C124.128 81.6912 124.319 81.8096 124.419 81.9977C124.922 82.9661 125.708 83.8091 126.743 84.3944C128.486 85.3837 130.746 85.5718 132.914 85.4115C135.068 85.2513 137.038 84.7427 138.129 84.4222C138.37 84.3526 138.498 84.1296 138.441 83.8927C138.179 82.8059 137.64 80.8691 136.705 78.9602C135.763 77.0303 134.466 75.198 132.73 74.2087C131.788 73.6792 130.767 73.4214 129.754 73.4214C129.556 73.3587 129.379 73.3169 129.272 73.1567C129.109 72.9895 129.166 72.7875 129.251 72.6133C129.605 71.8121 129.903 70.9064 129.903 69.945C129.903 67.9733 128.932 65.9459 127.706 64.1861C126.488 62.4332 125.056 61.005 124.227 60.24ZM138.817 67.5762C137.825 67.5344 135.734 67.5135 132.992 68.5794C132.943 68.2032 132.872 67.834 132.78 67.4647C135.77 66.3431 138.051 66.4127 139.1 66.5451C139.787 66.6287 140.184 67.3115 139.915 67.9315C139.511 68.886 138.448 70.8367 136.025 72.7944C135.727 72.5506 135.416 72.3207 135.09 72.1047C137.385 70.3072 138.413 68.5237 138.817 67.5762ZM108.898 66.5451C109.951 66.4127 112.233 66.3431 115.222 67.4647C115.129 67.834 115.059 68.2032 115.009 68.5794C112.268 67.5135 110.175 67.5344 109.187 67.5762C109.59 68.5237 110.613 70.3072 112.908 72.1047C112.581 72.3137 112.27 72.5506 111.973 72.7317C109.55 70.8298 108.49 68.886 108.083 67.9315C107.817 67.3115 108.215 66.6287 108.898 66.5451ZM123.129 93.535C122.527 92.6293 121.421 90.7064 120.897 87.9684C121.258 87.836 121.613 87.6897 121.967 87.5155C122.413 90.0863 123.42 91.9117 124.001 92.8034C124.582 91.9117 125.588 90.0863 126.034 87.5225C126.388 87.6897 126.743 87.7803 127.104 87.9684C126.58 90.7064 125.482 92.6293 124.872 93.535C124.447 94.155 123.554 94.155 123.129 93.535Z" fill="#BABABA" fill-opacity="0.25"/>
<path d="M120.536 171.372C120.536 169.526 122.123 168.028 123.937 168.028C125.878 168.028 127.402 169.526 127.402 171.372C127.402 173.218 125.878 174.716 123.937 174.716C122.123 174.716 120.536 173.218 120.536 171.372ZM123.937 169.143C122.746 169.143 121.669 170.139 121.669 171.372C121.669 172.605 122.746 173.602 123.937 173.602C125.255 173.602 126.268 172.605 126.268 171.372C126.268 170.139 125.255 169.143 123.937 169.143ZM122.831 155.428C123.448 154.857 124.39 154.857 125.007 155.428C125.864 156.221 127.359 157.711 128.642 159.556C129.917 161.39 131.037 163.639 131.037 165.945C131.037 166.795 130.881 167.603 130.597 168.356C131.526 168.467 132.44 168.76 133.29 169.247C135.323 170.397 136.748 172.473 137.726 174.472C138.71 176.493 139.277 178.506 139.547 179.635C139.738 180.45 139.27 181.251 138.455 181.488C137.329 181.823 135.267 182.352 132.999 182.519C130.746 182.693 128.209 182.512 126.176 181.363C125.255 180.833 124.49 180.137 123.916 179.328C123.335 180.137 122.576 180.84 121.648 181.363C119.622 182.512 117.078 182.693 114.825 182.526C112.558 182.352 110.498 181.823 109.369 181.488C108.559 181.251 108.088 180.45 108.282 179.635C108.551 178.506 109.117 176.493 110.1 174.479C111.077 172.473 112.503 170.397 114.534 169.247C115.392 168.76 116.313 168.467 117.234 168.356C116.958 167.603 116.802 166.795 116.802 165.945C116.802 163.639 117.921 161.391 119.197 159.556C120.479 157.711 121.974 156.221 122.831 155.428ZM124.227 156.24C124.05 156.073 123.724 156.073 123.604 156.24C122.775 157.005 121.351 158.433 120.132 160.186C118.906 161.946 117.935 163.973 117.935 165.945C117.935 166.906 118.169 167.812 118.587 168.613C118.672 168.787 118.665 168.989 118.566 169.157C118.46 169.324 118.275 169.421 118.077 169.421C117.071 169.421 116.043 169.679 115.101 170.209C114.917 170.313 114.74 170.425 114.57 170.55C113.096 171.588 111.963 173.232 111.122 174.96C110.188 176.813 109.645 178.806 109.385 179.893C109.328 180.13 109.459 180.353 109.697 180.422C110.785 180.743 112.758 181.251 114.91 181.412C117.078 181.572 119.345 181.384 121.081 180.394C122.116 179.809 122.902 178.966 123.413 177.998C123.505 177.81 123.703 177.691 123.916 177.691C124.128 177.691 124.319 177.81 124.419 177.998C124.922 178.966 125.708 179.809 126.743 180.394C128.486 181.384 130.746 181.572 132.914 181.412C135.068 181.251 137.038 180.743 138.129 180.422C138.37 180.353 138.498 180.13 138.441 179.893C138.179 178.806 137.64 176.869 136.705 174.96C135.763 173.03 134.466 171.198 132.73 170.209C131.788 169.679 130.767 169.421 129.754 169.421C129.556 169.359 129.379 169.317 129.272 169.157C129.109 168.989 129.166 168.787 129.251 168.613C129.605 167.812 129.903 166.906 129.903 165.945C129.903 163.973 128.932 161.946 127.706 160.186C126.488 158.433 125.056 157.005 124.227 156.24ZM138.817 163.576C137.825 163.534 135.734 163.513 132.992 164.579C132.943 164.203 132.872 163.834 132.78 163.465C135.77 162.343 138.051 162.413 139.1 162.545C139.787 162.629 140.184 163.311 139.915 163.932C139.511 164.886 138.448 166.837 136.025 168.794C135.727 168.551 135.416 168.321 135.09 168.105C137.385 166.307 138.413 164.524 138.817 163.576ZM108.898 162.545C109.951 162.413 112.233 162.343 115.222 163.465C115.129 163.834 115.059 164.203 115.009 164.579C112.268 163.513 110.175 163.534 109.187 163.576C109.59 164.524 110.613 166.307 112.908 168.105C112.581 168.314 112.27 168.551 111.973 168.732C109.55 166.83 108.49 164.886 108.083 163.932C107.817 163.311 108.215 162.629 108.898 162.545ZM123.129 189.535C122.527 188.629 121.421 186.706 120.897 183.968C121.258 183.836 121.613 183.69 121.967 183.516C122.413 186.086 123.42 187.912 124.001 188.803C124.582 187.912 125.588 186.086 126.034 183.523C126.388 183.69 126.743 183.78 127.104 183.968C126.58 186.706 125.482 188.629 124.872 189.535C124.447 190.155 123.554 190.155 123.129 189.535Z" fill="#BABABA" fill-opacity="0.25"/>
<path d="M58.5357 123.372C58.5357 121.526 60.1229 120.028 61.9369 120.028C63.8783 120.028 65.4017 121.526 65.4017 123.372C65.4017 125.218 63.8783 126.716 61.9369 126.716C60.1229 126.716 58.5357 125.218 58.5357 123.372ZM61.9369 121.143C60.7465 121.143 59.6695 122.139 59.6695 123.372C59.6695 124.605 60.7465 125.602 61.9369 125.602C63.2548 125.602 64.268 124.605 64.268 123.372C64.268 122.139 63.2548 121.143 61.9369 121.143ZM60.8315 107.428C61.4479 106.857 62.3903 106.857 63.0068 107.428C63.8641 108.221 65.3592 109.711 66.6417 111.556C67.9171 113.39 69.0367 115.639 69.0367 117.945C69.0367 118.795 68.8808 119.603 68.5974 120.356C69.5256 120.467 70.4396 120.76 71.2899 121.247C73.3235 122.397 74.7477 124.473 75.7255 126.472C76.7104 128.493 77.2773 130.506 77.5465 131.635C77.7378 132.45 77.2702 133.251 76.4553 133.488C75.3287 133.823 73.2668 134.352 70.9994 134.519C68.7462 134.693 66.2095 134.512 64.1759 133.363C63.2548 132.833 62.4895 132.137 61.9156 131.328C61.3346 132.137 60.5764 132.84 59.6482 133.363C57.6217 134.512 55.078 134.693 52.8247 134.526C50.558 134.352 48.4982 133.823 47.3695 133.488C46.5589 133.251 46.0884 132.45 46.2818 131.635C46.5511 130.506 47.1165 128.493 48.1 126.479C49.0771 124.473 50.5028 122.397 52.5342 121.247C53.3916 120.76 54.3127 120.467 55.2338 120.356C54.9575 119.603 54.8016 118.795 54.8016 117.945C54.8016 115.639 55.9211 113.391 57.1966 111.556C58.4791 109.711 59.9741 108.221 60.8315 107.428ZM62.2274 108.24C62.0502 108.073 61.7243 108.073 61.6038 108.24C60.7748 109.005 59.3506 110.433 58.1319 112.186C56.9061 113.946 55.9353 115.973 55.9353 117.945C55.9353 118.906 56.1691 119.812 56.5872 120.613C56.6722 120.787 56.6651 120.989 56.5659 121.157C56.4597 121.324 56.2754 121.421 56.077 121.421C55.0709 121.421 54.0435 121.679 53.1011 122.209C52.9168 122.313 52.7397 122.425 52.5696 122.55C51.0958 123.588 49.9628 125.232 49.1218 126.96C48.1879 128.813 47.6451 130.806 47.3851 131.893C47.3284 132.13 47.4595 132.353 47.6969 132.422C48.7852 132.743 50.7578 133.251 52.9098 133.412C55.078 133.572 57.3454 133.384 59.0813 132.394C60.1158 131.809 60.9024 130.966 61.4125 129.998C61.5046 129.81 61.703 129.691 61.9156 129.691C62.1282 129.691 62.3195 129.81 62.4187 129.998C62.9218 130.966 63.7083 131.809 64.7428 132.394C66.4858 133.384 68.7461 133.572 70.9144 133.412C73.0684 133.251 75.0382 132.743 76.1294 132.422C76.3703 132.353 76.4978 132.13 76.4412 131.893C76.179 130.806 75.6405 128.869 74.7052 126.96C73.7628 125.03 72.4661 123.198 70.7301 122.209C69.7877 121.679 68.7674 121.421 67.7542 121.421C67.5558 121.359 67.3786 121.317 67.2723 121.157C67.1094 120.989 67.1661 120.787 67.2511 120.613C67.6054 119.812 67.903 118.906 67.903 117.945C67.903 115.973 66.9322 113.946 65.7064 112.186C64.4877 110.433 63.0564 109.005 62.2274 108.24ZM76.8167 115.576C75.8247 115.534 73.7344 115.513 70.9923 116.579C70.9427 116.203 70.8718 115.834 70.7797 115.465C73.7699 114.343 76.0514 114.413 77.1001 114.545C77.7874 114.629 78.1842 115.311 77.915 115.932C77.5111 116.886 76.4482 118.837 74.0249 120.794C73.7274 120.551 73.4156 120.321 73.0896 120.105C75.3854 118.307 76.4128 116.524 76.8167 115.576ZM46.8983 114.545C47.9505 114.413 50.2328 114.343 53.2215 115.465C53.1294 115.834 53.0586 116.203 53.009 116.579C50.2682 115.513 48.1751 115.534 47.1874 115.576C47.5899 116.524 48.613 118.307 50.9081 120.105C50.5807 120.314 50.2696 120.551 49.9728 120.732C47.5502 118.83 46.4902 116.886 46.0835 115.932C45.817 115.311 46.2152 114.629 46.8983 114.545ZM61.1291 141.535C60.5268 140.629 59.4215 138.706 58.8971 135.968C59.2585 135.836 59.6128 135.69 59.967 135.516C60.4134 138.086 61.4196 139.912 62.0006 140.803C62.5816 139.912 63.5878 138.086 64.0342 135.523C64.3885 135.69 64.7428 135.78 65.1041 135.968C64.5798 138.706 63.4815 140.629 62.8722 141.535C62.447 142.155 61.5542 142.155 61.1291 141.535Z" fill="#BABABA" fill-opacity="0.25"/>
<path d="M58.5357 75.3722C58.5357 73.526 60.1229 72.0281 61.9369 72.0281C63.8783 72.0281 65.4017 73.526 65.4017 75.3722C65.4017 77.2184 63.8783 78.7163 61.9369 78.7163C60.1229 78.7163 58.5357 77.2184 58.5357 75.3722ZM61.9369 73.1428C60.7465 73.1428 59.6695 74.139 59.6695 75.3722C59.6695 76.6053 60.7465 77.6016 61.9369 77.6016C63.2548 77.6016 64.268 76.6053 64.268 75.3722C64.268 74.139 63.2548 73.1428 61.9369 73.1428ZM60.8315 59.4277C61.4479 58.8574 62.3903 58.8574 63.0068 59.4277C63.8641 60.2212 65.3592 61.7114 66.6417 63.5563C67.9171 65.39 69.0367 67.6389 69.0367 69.945C69.0367 70.7949 68.8808 71.6031 68.5974 72.3555C69.5256 72.467 70.4396 72.7596 71.2899 73.2473C73.3235 74.3968 74.7477 76.473 75.7255 78.4725C76.7104 80.4929 77.2773 82.5063 77.5465 83.635C77.7378 84.4501 77.2702 85.2513 76.4553 85.4882C75.3287 85.8226 73.2668 86.3521 70.9994 86.5193C68.7462 86.6934 66.2095 86.5123 64.1759 85.3628C63.2548 84.8333 62.4895 84.1366 61.9156 83.3284C61.3346 84.1366 60.5764 84.8402 59.6482 85.3628C57.6217 86.5123 55.078 86.6934 52.8247 86.5262C50.558 86.3521 48.4982 85.8226 47.3695 85.4882C46.5589 85.2513 46.0884 84.4501 46.2818 83.635C46.5511 82.5063 47.1165 80.4929 48.1 78.4794C49.0771 76.473 50.5028 74.3968 52.5342 73.2473C53.3916 72.7596 54.3127 72.467 55.2338 72.3555C54.9575 71.6031 54.8016 70.7949 54.8016 69.945C54.8016 67.6389 55.9211 65.3907 57.1966 63.5563C58.4791 61.7114 59.9741 60.2212 60.8315 59.4277ZM62.2274 60.24C62.0502 60.0728 61.7243 60.0728 61.6038 60.24C60.7748 61.005 59.3506 62.4332 58.1319 64.1861C56.9061 65.9459 55.9353 67.9733 55.9353 69.945C55.9353 70.9064 56.1691 71.8121 56.5872 72.6133C56.6722 72.7875 56.6651 72.9895 56.5659 73.1567C56.4597 73.3239 56.2754 73.4214 56.077 73.4214C55.0709 73.4214 54.0435 73.6792 53.1011 74.2087C52.9168 74.3132 52.7397 74.4247 52.5696 74.5501C51.0958 75.5882 49.9628 77.2324 49.1218 78.9602C48.1879 80.8134 47.6451 82.8059 47.3851 83.8927C47.3284 84.1296 47.4595 84.3526 47.6969 84.4222C48.7852 84.7427 50.7578 85.2513 52.9098 85.4115C55.078 85.5718 57.3454 85.3837 59.0813 84.3944C60.1158 83.8091 60.9024 82.9661 61.4125 81.9977C61.5046 81.8096 61.703 81.6912 61.9156 81.6912C62.1282 81.6912 62.3195 81.8096 62.4187 81.9977C62.9218 82.9661 63.7083 83.8091 64.7428 84.3944C66.4858 85.3837 68.7461 85.5718 70.9144 85.4115C73.0684 85.2513 75.0382 84.7427 76.1294 84.4222C76.3703 84.3526 76.4978 84.1296 76.4412 83.8927C76.179 82.8059 75.6405 80.8691 74.7052 78.9602C73.7628 77.0303 72.4661 75.198 70.7301 74.2087C69.7877 73.6792 68.7674 73.4214 67.7542 73.4214C67.5558 73.3587 67.3786 73.3169 67.2723 73.1567C67.1094 72.9895 67.1661 72.7875 67.2511 72.6133C67.6054 71.8121 67.903 70.9064 67.903 69.945C67.903 67.9733 66.9322 65.9459 65.7064 64.1861C64.4877 62.4332 63.0564 61.005 62.2274 60.24ZM76.8167 67.5762C75.8247 67.5344 73.7344 67.5135 70.9923 68.5794C70.9427 68.2032 70.8718 67.834 70.7797 67.4647C73.7699 66.3431 76.0514 66.4127 77.1001 66.5451C77.7874 66.6287 78.1842 67.3115 77.915 67.9315C77.5111 68.886 76.4482 70.8367 74.0249 72.7944C73.7274 72.5506 73.4156 72.3207 73.0896 72.1047C75.3854 70.3072 76.4128 68.5237 76.8167 67.5762ZM46.8983 66.5451C47.9505 66.4127 50.2328 66.3431 53.2215 67.4647C53.1294 67.834 53.0586 68.2032 53.009 68.5794C50.2682 67.5135 48.1751 67.5344 47.1874 67.5762C47.5899 68.5237 48.613 70.3072 50.9081 72.1047C50.5807 72.3137 50.2696 72.5506 49.9728 72.7317C47.5502 70.8298 46.4902 68.886 46.0835 67.9315C45.817 67.3115 46.2152 66.6287 46.8983 66.5451ZM61.1291 93.535C60.5268 92.6293 59.4215 90.7064 58.8971 87.9684C59.2585 87.836 59.6128 87.6897 59.967 87.5155C60.4134 90.0863 61.4196 91.9117 62.0006 92.8034C62.5816 91.9117 63.5878 90.0863 64.0342 87.5225C64.3885 87.6897 64.7428 87.7803 65.1041 87.9684C64.5798 90.7064 63.4815 92.6293 62.8722 93.535C62.447 94.155 61.5542 94.155 61.1291 93.535Z" fill="#BABABA" fill-opacity="0.25"/>
<path d="M58.5357 171.372C58.5357 169.526 60.1229 168.028 61.9369 168.028C63.8783 168.028 65.4017 169.526 65.4017 171.372C65.4017 173.218 63.8783 174.716 61.9369 174.716C60.1229 174.716 58.5357 173.218 58.5357 171.372ZM61.9369 169.143C60.7465 169.143 59.6695 170.139 59.6695 171.372C59.6695 172.605 60.7465 173.602 61.9369 173.602C63.2548 173.602 64.268 172.605 64.268 171.372C64.268 170.139 63.2548 169.143 61.9369 169.143ZM60.8315 155.428C61.4479 154.857 62.3903 154.857 63.0068 155.428C63.8641 156.221 65.3592 157.711 66.6417 159.556C67.9171 161.39 69.0367 163.639 69.0367 165.945C69.0367 166.795 68.8808 167.603 68.5974 168.356C69.5256 168.467 70.4396 168.76 71.2899 169.247C73.3235 170.397 74.7477 172.473 75.7255 174.472C76.7104 176.493 77.2773 178.506 77.5465 179.635C77.7378 180.45 77.2702 181.251 76.4553 181.488C75.3287 181.823 73.2668 182.352 70.9994 182.519C68.7462 182.693 66.2095 182.512 64.1759 181.363C63.2548 180.833 62.4895 180.137 61.9156 179.328C61.3346 180.137 60.5764 180.84 59.6482 181.363C57.6217 182.512 55.078 182.693 52.8247 182.526C50.558 182.352 48.4982 181.823 47.3695 181.488C46.5589 181.251 46.0884 180.45 46.2818 179.635C46.5511 178.506 47.1165 176.493 48.1 174.479C49.0771 172.473 50.5028 170.397 52.5342 169.247C53.3916 168.76 54.3127 168.467 55.2338 168.356C54.9575 167.603 54.8016 166.795 54.8016 165.945C54.8016 163.639 55.9211 161.391 57.1966 159.556C58.4791 157.711 59.9741 156.221 60.8315 155.428ZM62.2274 156.24C62.0502 156.073 61.7243 156.073 61.6038 156.24C60.7748 157.005 59.3506 158.433 58.1319 160.186C56.9061 161.946 55.9353 163.973 55.9353 165.945C55.9353 166.906 56.1691 167.812 56.5872 168.613C56.6722 168.787 56.6651 168.989 56.5659 169.157C56.4597 169.324 56.2754 169.421 56.077 169.421C55.0709 169.421 54.0435 169.679 53.1011 170.209C52.9168 170.313 52.7397 170.425 52.5696 170.55C51.0958 171.588 49.9628 173.232 49.1218 174.96C48.1879 176.813 47.6451 178.806 47.3851 179.893C47.3284 180.13 47.4595 180.353 47.6969 180.422C48.7852 180.743 50.7578 181.251 52.9098 181.412C55.078 181.572 57.3454 181.384 59.0813 180.394C60.1158 179.809 60.9024 178.966 61.4125 177.998C61.5046 177.81 61.703 177.691 61.9156 177.691C62.1282 177.691 62.3195 177.81 62.4187 177.998C62.9218 178.966 63.7083 179.809 64.7428 180.394C66.4858 181.384 68.7461 181.572 70.9144 181.412C73.0684 181.251 75.0382 180.743 76.1294 180.422C76.3703 180.353 76.4978 180.13 76.4412 179.893C76.179 178.806 75.6405 176.869 74.7052 174.96C73.7628 173.03 72.4661 171.198 70.7301 170.209C69.7877 169.679 68.7674 169.421 67.7542 169.421C67.5558 169.359 67.3786 169.317 67.2723 169.157C67.1094 168.989 67.1661 168.787 67.2511 168.613C67.6054 167.812 67.903 166.906 67.903 165.945C67.903 163.973 66.9322 161.946 65.7064 160.186C64.4877 158.433 63.0564 157.005 62.2274 156.24ZM76.8167 163.576C75.8247 163.534 73.7344 163.513 70.9923 164.579C70.9427 164.203 70.8718 163.834 70.7797 163.465C73.7699 162.343 76.0514 162.413 77.1001 162.545C77.7874 162.629 78.1842 163.311 77.915 163.932C77.5111 164.886 76.4482 166.837 74.0249 168.794C73.7274 168.551 73.4156 168.321 73.0896 168.105C75.3854 166.307 76.4128 164.524 76.8167 163.576ZM46.8983 162.545C47.9505 162.413 50.2328 162.343 53.2215 163.465C53.1294 163.834 53.0586 164.203 53.009 164.579C50.2682 163.513 48.1751 163.534 47.1874 163.576C47.5899 164.524 48.613 166.307 50.9081 168.105C50.5807 168.314 50.2696 168.551 49.9728 168.732C47.5502 166.83 46.4902 164.886 46.0835 163.932C45.817 163.311 46.2152 162.629 46.8983 162.545ZM61.1291 189.535C60.5268 188.629 59.4215 186.706 58.8971 183.968C59.2585 183.836 59.6128 183.69 59.967 183.516C60.4134 186.086 61.4196 187.912 62.0006 188.803C62.5816 187.912 63.5878 186.086 64.0342 183.523C64.3885 183.69 64.7428 183.78 65.1041 183.968C64.5798 186.706 63.4815 188.629 62.8722 189.535C62.447 190.155 61.5542 190.155 61.1291 189.535Z" fill="#BABABA" fill-opacity="0.25"/>
<path d="M182.536 123.372C182.536 121.526 184.123 120.028 185.937 120.028C187.878 120.028 189.402 121.526 189.402 123.372C189.402 125.218 187.878 126.716 185.937 126.716C184.123 126.716 182.536 125.218 182.536 123.372ZM185.937 121.143C184.746 121.143 183.669 122.139 183.669 123.372C183.669 124.605 184.746 125.602 185.937 125.602C187.255 125.602 188.268 124.605 188.268 123.372C188.268 122.139 187.255 121.143 185.937 121.143ZM184.831 107.428C185.448 106.857 186.39 106.857 187.007 107.428C187.864 108.221 189.359 109.711 190.642 111.556C191.917 113.39 193.037 115.639 193.037 117.945C193.037 118.795 192.881 119.603 192.597 120.356C193.526 120.467 194.44 120.76 195.29 121.247C197.323 122.397 198.748 124.473 199.726 126.472C200.71 128.493 201.277 130.506 201.547 131.635C201.738 132.45 201.27 133.251 200.455 133.488C199.329 133.823 197.267 134.352 194.999 134.519C192.746 134.693 190.209 134.512 188.176 133.363C187.255 132.833 186.49 132.137 185.916 131.328C185.335 132.137 184.576 132.84 183.648 133.363C181.622 134.512 179.078 134.693 176.825 134.526C174.558 134.352 172.498 133.823 171.369 133.488C170.559 133.251 170.088 132.45 170.282 131.635C170.551 130.506 171.117 128.493 172.1 126.479C173.077 124.473 174.503 122.397 176.534 121.247C177.392 120.76 178.313 120.467 179.234 120.356C178.958 119.603 178.802 118.795 178.802 117.945C178.802 115.639 179.921 113.391 181.197 111.556C182.479 109.711 183.974 108.221 184.831 107.428ZM186.227 108.24C186.05 108.073 185.724 108.073 185.604 108.24C184.775 109.005 183.351 110.433 182.132 112.186C180.906 113.946 179.935 115.973 179.935 117.945C179.935 118.906 180.169 119.812 180.587 120.613C180.672 120.787 180.665 120.989 180.566 121.157C180.46 121.324 180.275 121.421 180.077 121.421C179.071 121.421 178.043 121.679 177.101 122.209C176.917 122.313 176.74 122.425 176.57 122.55C175.096 123.588 173.963 125.232 173.122 126.96C172.188 128.813 171.645 130.806 171.385 131.893C171.328 132.13 171.459 132.353 171.697 132.422C172.785 132.743 174.758 133.251 176.91 133.412C179.078 133.572 181.345 133.384 183.081 132.394C184.116 131.809 184.902 130.966 185.413 129.998C185.505 129.81 185.703 129.691 185.916 129.691C186.128 129.691 186.319 129.81 186.419 129.998C186.922 130.966 187.708 131.809 188.743 132.394C190.486 133.384 192.746 133.572 194.914 133.412C197.068 133.251 199.038 132.743 200.129 132.422C200.37 132.353 200.498 132.13 200.441 131.893C200.179 130.806 199.64 128.869 198.705 126.96C197.763 125.03 196.466 123.198 194.73 122.209C193.788 121.679 192.767 121.421 191.754 121.421C191.556 121.359 191.379 121.317 191.272 121.157C191.109 120.989 191.166 120.787 191.251 120.613C191.605 119.812 191.903 118.906 191.903 117.945C191.903 115.973 190.932 113.946 189.706 112.186C188.488 110.433 187.056 109.005 186.227 108.24ZM200.817 115.576C199.825 115.534 197.734 115.513 194.992 116.579C194.943 116.203 194.872 115.834 194.78 115.465C197.77 114.343 200.051 114.413 201.1 114.545C201.787 114.629 202.184 115.311 201.915 115.932C201.511 116.886 200.448 118.837 198.025 120.794C197.727 120.551 197.416 120.321 197.09 120.105C199.385 118.307 200.413 116.524 200.817 115.576ZM170.898 114.545C171.951 114.413 174.233 114.343 177.222 115.465C177.129 115.834 177.059 116.203 177.009 116.579C174.268 115.513 172.175 115.534 171.187 115.576C171.59 116.524 172.613 118.307 174.908 120.105C174.581 120.314 174.27 120.551 173.973 120.732C171.55 118.83 170.49 116.886 170.083 115.932C169.817 115.311 170.215 114.629 170.898 114.545ZM185.129 141.535C184.527 140.629 183.421 138.706 182.897 135.968C183.258 135.836 183.613 135.69 183.967 135.516C184.413 138.086 185.42 139.912 186.001 140.803C186.582 139.912 187.588 138.086 188.034 135.523C188.388 135.69 188.743 135.78 189.104 135.968C188.58 138.706 187.482 140.629 186.872 141.535C186.447 142.155 185.554 142.155 185.129 141.535Z" fill="#BABABA" fill-opacity="0.25"/>
<path d="M182.536 75.3722C182.536 73.526 184.123 72.0281 185.937 72.0281C187.878 72.0281 189.402 73.526 189.402 75.3722C189.402 77.2184 187.878 78.7163 185.937 78.7163C184.123 78.7163 182.536 77.2184 182.536 75.3722ZM185.937 73.1428C184.746 73.1428 183.669 74.139 183.669 75.3722C183.669 76.6053 184.746 77.6016 185.937 77.6016C187.255 77.6016 188.268 76.6053 188.268 75.3722C188.268 74.139 187.255 73.1428 185.937 73.1428ZM184.831 59.4277C185.448 58.8574 186.39 58.8574 187.007 59.4277C187.864 60.2212 189.359 61.7114 190.642 63.5563C191.917 65.39 193.037 67.6389 193.037 69.945C193.037 70.7949 192.881 71.6031 192.597 72.3555C193.526 72.467 194.44 72.7596 195.29 73.2473C197.323 74.3968 198.748 76.473 199.726 78.4725C200.71 80.4929 201.277 82.5063 201.547 83.635C201.738 84.4501 201.27 85.2513 200.455 85.4882C199.329 85.8226 197.267 86.3521 194.999 86.5193C192.746 86.6934 190.209 86.5123 188.176 85.3628C187.255 84.8333 186.49 84.1366 185.916 83.3284C185.335 84.1366 184.576 84.8402 183.648 85.3628C181.622 86.5123 179.078 86.6934 176.825 86.5262C174.558 86.3521 172.498 85.8226 171.369 85.4882C170.559 85.2513 170.088 84.4501 170.282 83.635C170.551 82.5063 171.117 80.4929 172.1 78.4794C173.077 76.473 174.503 74.3968 176.534 73.2473C177.392 72.7596 178.313 72.467 179.234 72.3555C178.958 71.6031 178.802 70.7949 178.802 69.945C178.802 67.6389 179.921 65.3907 181.197 63.5563C182.479 61.7114 183.974 60.2212 184.831 59.4277ZM186.227 60.24C186.05 60.0728 185.724 60.0728 185.604 60.24C184.775 61.005 183.351 62.4332 182.132 64.1861C180.906 65.9459 179.935 67.9733 179.935 69.945C179.935 70.9064 180.169 71.8121 180.587 72.6133C180.672 72.7875 180.665 72.9895 180.566 73.1567C180.46 73.3239 180.275 73.4214 180.077 73.4214C179.071 73.4214 178.043 73.6792 177.101 74.2087C176.917 74.3132 176.74 74.4247 176.57 74.5501C175.096 75.5882 173.963 77.2324 173.122 78.9602C172.188 80.8134 171.645 82.8059 171.385 83.8927C171.328 84.1296 171.459 84.3526 171.697 84.4222C172.785 84.7427 174.758 85.2513 176.91 85.4115C179.078 85.5718 181.345 85.3837 183.081 84.3944C184.116 83.8091 184.902 82.9661 185.413 81.9977C185.505 81.8096 185.703 81.6912 185.916 81.6912C186.128 81.6912 186.319 81.8096 186.419 81.9977C186.922 82.9661 187.708 83.8091 188.743 84.3944C190.486 85.3837 192.746 85.5718 194.914 85.4115C197.068 85.2513 199.038 84.7427 200.129 84.4222C200.37 84.3526 200.498 84.1296 200.441 83.8927C200.179 82.8059 199.64 80.8691 198.705 78.9602C197.763 77.0303 196.466 75.198 194.73 74.2087C193.788 73.6792 192.767 73.4214 191.754 73.4214C191.556 73.3587 191.379 73.3169 191.272 73.1567C191.109 72.9895 191.166 72.7875 191.251 72.6133C191.605 71.8121 191.903 70.9064 191.903 69.945C191.903 67.9733 190.932 65.9459 189.706 64.1861C188.488 62.4332 187.056 61.005 186.227 60.24ZM200.817 67.5762C199.825 67.5344 197.734 67.5135 194.992 68.5794C194.943 68.2032 194.872 67.834 194.78 67.4647C197.77 66.3431 200.051 66.4127 201.1 66.5451C201.787 66.6287 202.184 67.3115 201.915 67.9315C201.511 68.886 200.448 70.8367 198.025 72.7944C197.727 72.5506 197.416 72.3207 197.09 72.1047C199.385 70.3072 200.413 68.5237 200.817 67.5762ZM170.898 66.5451C171.951 66.4127 174.233 66.3431 177.222 67.4647C177.129 67.834 177.059 68.2032 177.009 68.5794C174.268 67.5135 172.175 67.5344 171.187 67.5762C171.59 68.5237 172.613 70.3072 174.908 72.1047C174.581 72.3137 174.27 72.5506 173.973 72.7317C171.55 70.8298 170.49 68.886 170.083 67.9315C169.817 67.3115 170.215 66.6287 170.898 66.5451ZM185.129 93.535C184.527 92.6293 183.421 90.7064 182.897 87.9684C183.258 87.836 183.613 87.6897 183.967 87.5155C184.413 90.0863 185.42 91.9117 186.001 92.8034C186.582 91.9117 187.588 90.0863 188.034 87.5225C188.388 87.6897 188.743 87.7803 189.104 87.9684C188.58 90.7064 187.482 92.6293 186.872 93.535C186.447 94.155 185.554 94.155 185.129 93.535Z" fill="#BABABA" fill-opacity="0.25"/>
<path d="M182.536 171.372C182.536 169.526 184.123 168.028 185.937 168.028C187.878 168.028 189.402 169.526 189.402 171.372C189.402 173.218 187.878 174.716 185.937 174.716C184.123 174.716 182.536 173.218 182.536 171.372ZM185.937 169.143C184.746 169.143 183.669 170.139 183.669 171.372C183.669 172.605 184.746 173.602 185.937 173.602C187.255 173.602 188.268 172.605 188.268 171.372C188.268 170.139 187.255 169.143 185.937 169.143ZM184.831 155.428C185.448 154.857 186.39 154.857 187.007 155.428C187.864 156.221 189.359 157.711 190.642 159.556C191.917 161.39 193.037 163.639 193.037 165.945C193.037 166.795 192.881 167.603 192.597 168.356C193.526 168.467 194.44 168.76 195.29 169.247C197.323 170.397 198.748 172.473 199.726 174.472C200.71 176.493 201.277 178.506 201.547 179.635C201.738 180.45 201.27 181.251 200.455 181.488C199.329 181.823 197.267 182.352 194.999 182.519C192.746 182.693 190.209 182.512 188.176 181.363C187.255 180.833 186.49 180.137 185.916 179.328C185.335 180.137 184.576 180.84 183.648 181.363C181.622 182.512 179.078 182.693 176.825 182.526C174.558 182.352 172.498 181.823 171.369 181.488C170.559 181.251 170.088 180.45 170.282 179.635C170.551 178.506 171.117 176.493 172.1 174.479C173.077 172.473 174.503 170.397 176.534 169.247C177.392 168.76 178.313 168.467 179.234 168.356C178.958 167.603 178.802 166.795 178.802 165.945C178.802 163.639 179.921 161.391 181.197 159.556C182.479 157.711 183.974 156.221 184.831 155.428ZM186.227 156.24C186.05 156.073 185.724 156.073 185.604 156.24C184.775 157.005 183.351 158.433 182.132 160.186C180.906 161.946 179.935 163.973 179.935 165.945C179.935 166.906 180.169 167.812 180.587 168.613C180.672 168.787 180.665 168.989 180.566 169.157C180.46 169.324 180.275 169.421 180.077 169.421C179.071 169.421 178.043 169.679 177.101 170.209C176.917 170.313 176.74 170.425 176.57 170.55C175.096 171.588 173.963 173.232 173.122 174.96C172.188 176.813 171.645 178.806 171.385 179.893C171.328 180.13 171.459 180.353 171.697 180.422C172.785 180.743 174.758 181.251 176.91 181.412C179.078 181.572 181.345 181.384 183.081 180.394C184.116 179.809 184.902 178.966 185.413 177.998C185.505 177.81 185.703 177.691 185.916 177.691C186.128 177.691 186.319 177.81 186.419 177.998C186.922 178.966 187.708 179.809 188.743 180.394C190.486 181.384 192.746 181.572 194.914 181.412C197.068 181.251 199.038 180.743 200.129 180.422C200.37 180.353 200.498 180.13 200.441 179.893C200.179 178.806 199.64 176.869 198.705 174.96C197.763 173.03 196.466 171.198 194.73 170.209C193.788 169.679 192.767 169.421 191.754 169.421C191.556 169.359 191.379 169.317 191.272 169.157C191.109 168.989 191.166 168.787 191.251 168.613C191.605 167.812 191.903 166.906 191.903 165.945C191.903 163.973 190.932 161.946 189.706 160.186C188.488 158.433 187.056 157.005 186.227 156.24ZM200.817 163.576C199.825 163.534 197.734 163.513 194.992 164.579C194.943 164.203 194.872 163.834 194.78 163.465C197.77 162.343 200.051 162.413 201.1 162.545C201.787 162.629 202.184 163.311 201.915 163.932C201.511 164.886 200.448 166.837 198.025 168.794C197.727 168.551 197.416 168.321 197.09 168.105C199.385 166.307 200.413 164.524 200.817 163.576ZM170.898 162.545C171.951 162.413 174.233 162.343 177.222 163.465C177.129 163.834 177.059 164.203 177.009 164.579C174.268 163.513 172.175 163.534 171.187 163.576C171.59 164.524 172.613 166.307 174.908 168.105C174.581 168.314 174.27 168.551 173.973 168.732C171.55 166.83 170.49 164.886 170.083 163.932C169.817 163.311 170.215 162.629 170.898 162.545ZM185.129 189.535C184.527 188.629 183.421 186.706 182.897 183.968C183.258 183.836 183.613 183.69 183.967 183.516C184.413 186.086 185.42 187.912 186.001 188.803C186.582 187.912 187.588 186.086 188.034 183.523C188.388 183.69 188.743 183.78 189.104 183.968C188.58 186.706 187.482 188.629 186.872 189.535C186.447 190.155 185.554 190.155 185.129 189.535Z" fill="#BABABA" fill-opacity="0.25"/>
<path d="M244.536 218.372C244.536 216.526 246.123 215.028 247.937 215.028C249.878 215.028 251.402 216.526 251.402 218.372C251.402 220.218 249.878 221.716 247.937 221.716C246.123 221.716 244.536 220.218 244.536 218.372ZM247.937 216.143C246.746 216.143 245.669 217.139 245.669 218.372C245.669 219.605 246.746 220.602 247.937 220.602C249.255 220.602 250.268 219.605 250.268 218.372C250.268 217.139 249.255 216.143 247.937 216.143ZM246.831 202.428C247.448 201.857 248.39 201.857 249.007 202.428C249.864 203.221 251.359 204.711 252.642 206.556C253.917 208.39 255.037 210.639 255.037 212.945C255.037 213.795 254.881 214.603 254.597 215.356C255.526 215.467 256.44 215.76 257.29 216.247C259.323 217.397 260.748 219.473 261.726 221.472C262.71 223.493 263.277 225.506 263.547 226.635C263.738 227.45 263.27 228.251 262.455 228.488C261.329 228.823 259.267 229.352 256.999 229.519C254.746 229.693 252.209 229.512 250.176 228.363C249.255 227.833 248.49 227.137 247.916 226.328C247.335 227.137 246.576 227.84 245.648 228.363C243.622 229.512 241.078 229.693 238.825 229.526C236.558 229.352 234.498 228.823 233.369 228.488C232.559 228.251 232.088 227.45 232.282 226.635C232.551 225.506 233.117 223.493 234.1 221.479C235.077 219.473 236.503 217.397 238.534 216.247C239.392 215.76 240.313 215.467 241.234 215.356C240.958 214.603 240.802 213.795 240.802 212.945C240.802 210.639 241.921 208.391 243.197 206.556C244.479 204.711 245.974 203.221 246.831 202.428ZM248.227 203.24C248.05 203.073 247.724 203.073 247.604 203.24C246.775 204.005 245.351 205.433 244.132 207.186C242.906 208.946 241.935 210.973 241.935 212.945C241.935 213.906 242.169 214.812 242.587 215.613C242.672 215.787 242.665 215.989 242.566 216.157C242.46 216.324 242.275 216.421 242.077 216.421C241.071 216.421 240.043 216.679 239.101 217.209C238.917 217.313 238.74 217.425 238.57 217.55C237.096 218.588 235.963 220.232 235.122 221.96C234.188 223.813 233.645 225.806 233.385 226.893C233.328 227.13 233.459 227.353 233.697 227.422C234.785 227.743 236.758 228.251 238.91 228.412C241.078 228.572 243.345 228.384 245.081 227.394C246.116 226.809 246.902 225.966 247.413 224.998C247.505 224.81 247.703 224.691 247.916 224.691C248.128 224.691 248.319 224.81 248.419 224.998C248.922 225.966 249.708 226.809 250.743 227.394C252.486 228.384 254.746 228.572 256.914 228.412C259.068 228.251 261.038 227.743 262.129 227.422C262.37 227.353 262.498 227.13 262.441 226.893C262.179 225.806 261.64 223.869 260.705 221.96C259.763 220.03 258.466 218.198 256.73 217.209C255.788 216.679 254.767 216.421 253.754 216.421C253.556 216.359 253.379 216.317 253.272 216.157C253.109 215.989 253.166 215.787 253.251 215.613C253.605 214.812 253.903 213.906 253.903 212.945C253.903 210.973 252.932 208.946 251.706 207.186C250.488 205.433 249.056 204.005 248.227 203.24ZM262.817 210.576C261.825 210.534 259.734 210.513 256.992 211.579C256.943 211.203 256.872 210.834 256.78 210.465C259.77 209.343 262.051 209.413 263.1 209.545C263.787 209.629 264.184 210.311 263.915 210.932C263.511 211.886 262.448 213.837 260.025 215.794C259.727 215.551 259.416 215.321 259.09 215.105C261.385 213.307 262.413 211.524 262.817 210.576ZM232.898 209.545C233.951 209.413 236.233 209.343 239.222 210.465C239.129 210.834 239.059 211.203 239.009 211.579C236.268 210.513 234.175 210.534 233.187 210.576C233.59 211.524 234.613 213.307 236.908 215.105C236.581 215.314 236.27 215.551 235.973 215.732C233.55 213.83 232.49 211.886 232.083 210.932C231.817 210.311 232.215 209.629 232.898 209.545ZM247.129 236.535C246.527 235.629 245.421 233.706 244.897 230.968C245.258 230.836 245.613 230.69 245.967 230.516C246.413 233.086 247.42 234.912 248.001 235.803C248.582 234.912 249.588 233.086 250.034 230.523C250.388 230.69 250.743 230.78 251.104 230.968C250.58 233.706 249.482 235.629 248.872 236.535C248.447 237.155 247.554 237.155 247.129 236.535Z" fill="#BABABA" fill-opacity="0.25"/>
<path d="M120.536 218.372C120.536 216.526 122.123 215.028 123.937 215.028C125.878 215.028 127.402 216.526 127.402 218.372C127.402 220.218 125.878 221.716 123.937 221.716C122.123 221.716 120.536 220.218 120.536 218.372ZM123.937 216.143C122.746 216.143 121.669 217.139 121.669 218.372C121.669 219.605 122.746 220.602 123.937 220.602C125.255 220.602 126.268 219.605 126.268 218.372C126.268 217.139 125.255 216.143 123.937 216.143ZM122.831 202.428C123.448 201.857 124.39 201.857 125.007 202.428C125.864 203.221 127.359 204.711 128.642 206.556C129.917 208.39 131.037 210.639 131.037 212.945C131.037 213.795 130.881 214.603 130.597 215.356C131.526 215.467 132.44 215.76 133.29 216.247C135.323 217.397 136.748 219.473 137.726 221.472C138.71 223.493 139.277 225.506 139.547 226.635C139.738 227.45 139.27 228.251 138.455 228.488C137.329 228.823 135.267 229.352 132.999 229.519C130.746 229.693 128.209 229.512 126.176 228.363C125.255 227.833 124.49 227.137 123.916 226.328C123.335 227.137 122.576 227.84 121.648 228.363C119.622 229.512 117.078 229.693 114.825 229.526C112.558 229.352 110.498 228.823 109.369 228.488C108.559 228.251 108.088 227.45 108.282 226.635C108.551 225.506 109.117 223.493 110.1 221.479C111.077 219.473 112.503 217.397 114.534 216.247C115.392 215.76 116.313 215.467 117.234 215.356C116.958 214.603 116.802 213.795 116.802 212.945C116.802 210.639 117.921 208.391 119.197 206.556C120.479 204.711 121.974 203.221 122.831 202.428ZM124.227 203.24C124.05 203.073 123.724 203.073 123.604 203.24C122.775 204.005 121.351 205.433 120.132 207.186C118.906 208.946 117.935 210.973 117.935 212.945C117.935 213.906 118.169 214.812 118.587 215.613C118.672 215.787 118.665 215.989 118.566 216.157C118.46 216.324 118.275 216.421 118.077 216.421C117.071 216.421 116.043 216.679 115.101 217.209C114.917 217.313 114.74 217.425 114.57 217.55C113.096 218.588 111.963 220.232 111.122 221.96C110.188 223.813 109.645 225.806 109.385 226.893C109.328 227.13 109.459 227.353 109.697 227.422C110.785 227.743 112.758 228.251 114.91 228.412C117.078 228.572 119.345 228.384 121.081 227.394C122.116 226.809 122.902 225.966 123.413 224.998C123.505 224.81 123.703 224.691 123.916 224.691C124.128 224.691 124.319 224.81 124.419 224.998C124.922 225.966 125.708 226.809 126.743 227.394C128.486 228.384 130.746 228.572 132.914 228.412C135.068 228.251 137.038 227.743 138.129 227.422C138.37 227.353 138.498 227.13 138.441 226.893C138.179 225.806 137.64 223.869 136.705 221.96C135.763 220.03 134.466 218.198 132.73 217.209C131.788 216.679 130.767 216.421 129.754 216.421C129.556 216.359 129.379 216.317 129.272 216.157C129.109 215.989 129.166 215.787 129.251 215.613C129.605 214.812 129.903 213.906 129.903 212.945C129.903 210.973 128.932 208.946 127.706 207.186C126.488 205.433 125.056 204.005 124.227 203.24ZM138.817 210.576C137.825 210.534 135.734 210.513 132.992 211.579C132.943 211.203 132.872 210.834 132.78 210.465C135.77 209.343 138.051 209.413 139.1 209.545C139.787 209.629 140.184 210.311 139.915 210.932C139.511 211.886 138.448 213.837 136.025 215.794C135.727 215.551 135.416 215.321 135.09 215.105C137.385 213.307 138.413 211.524 138.817 210.576ZM108.898 209.545C109.951 209.413 112.233 209.343 115.222 210.465C115.129 210.834 115.059 211.203 115.009 211.579C112.268 210.513 110.175 210.534 109.187 210.576C109.59 211.524 110.613 213.307 112.908 215.105C112.581 215.314 112.27 215.551 111.973 215.732C109.55 213.83 108.49 211.886 108.083 210.932C107.817 210.311 108.215 209.629 108.898 209.545ZM123.129 236.535C122.527 235.629 121.421 233.706 120.897 230.968C121.258 230.836 121.613 230.69 121.967 230.516C122.413 233.086 123.42 234.912 124.001 235.803C124.582 234.912 125.588 233.086 126.034 230.523C126.388 230.69 126.743 230.78 127.104 230.968C126.58 233.706 125.482 235.629 124.872 236.535C124.447 237.155 123.554 237.155 123.129 236.535Z" fill="#BABABA" fill-opacity="0.25"/>
<path d="M58.5357 218.372C58.5357 216.526 60.1229 215.028 61.9369 215.028C63.8783 215.028 65.4017 216.526 65.4017 218.372C65.4017 220.218 63.8783 221.716 61.9369 221.716C60.1229 221.716 58.5357 220.218 58.5357 218.372ZM61.9369 216.143C60.7465 216.143 59.6695 217.139 59.6695 218.372C59.6695 219.605 60.7465 220.602 61.9369 220.602C63.2548 220.602 64.268 219.605 64.268 218.372C64.268 217.139 63.2548 216.143 61.9369 216.143ZM60.8315 202.428C61.4479 201.857 62.3903 201.857 63.0068 202.428C63.8641 203.221 65.3592 204.711 66.6417 206.556C67.9171 208.39 69.0367 210.639 69.0367 212.945C69.0367 213.795 68.8808 214.603 68.5974 215.356C69.5256 215.467 70.4396 215.76 71.2899 216.247C73.3235 217.397 74.7477 219.473 75.7255 221.472C76.7104 223.493 77.2773 225.506 77.5465 226.635C77.7378 227.45 77.2702 228.251 76.4553 228.488C75.3287 228.823 73.2668 229.352 70.9994 229.519C68.7462 229.693 66.2095 229.512 64.1759 228.363C63.2548 227.833 62.4895 227.137 61.9156 226.328C61.3346 227.137 60.5764 227.84 59.6482 228.363C57.6217 229.512 55.078 229.693 52.8247 229.526C50.558 229.352 48.4982 228.823 47.3695 228.488C46.5589 228.251 46.0884 227.45 46.2818 226.635C46.5511 225.506 47.1165 223.493 48.1 221.479C49.0771 219.473 50.5028 217.397 52.5342 216.247C53.3916 215.76 54.3127 215.467 55.2338 215.356C54.9575 214.603 54.8016 213.795 54.8016 212.945C54.8016 210.639 55.9211 208.391 57.1966 206.556C58.4791 204.711 59.9741 203.221 60.8315 202.428ZM62.2274 203.24C62.0502 203.073 61.7243 203.073 61.6038 203.24C60.7748 204.005 59.3506 205.433 58.1319 207.186C56.9061 208.946 55.9353 210.973 55.9353 212.945C55.9353 213.906 56.1691 214.812 56.5872 215.613C56.6722 215.787 56.6651 215.989 56.5659 216.157C56.4597 216.324 56.2754 216.421 56.077 216.421C55.0709 216.421 54.0435 216.679 53.1011 217.209C52.9168 217.313 52.7397 217.425 52.5696 217.55C51.0958 218.588 49.9628 220.232 49.1218 221.96C48.1879 223.813 47.6451 225.806 47.3851 226.893C47.3284 227.13 47.4595 227.353 47.6969 227.422C48.7852 227.743 50.7578 228.251 52.9098 228.412C55.078 228.572 57.3454 228.384 59.0813 227.394C60.1158 226.809 60.9024 225.966 61.4125 224.998C61.5046 224.81 61.703 224.691 61.9156 224.691C62.1282 224.691 62.3195 224.81 62.4187 224.998C62.9218 225.966 63.7083 226.809 64.7428 227.394C66.4858 228.384 68.7461 228.572 70.9144 228.412C73.0684 228.251 75.0382 227.743 76.1294 227.422C76.3703 227.353 76.4978 227.13 76.4412 226.893C76.179 225.806 75.6405 223.869 74.7052 221.96C73.7628 220.03 72.4661 218.198 70.7301 217.209C69.7877 216.679 68.7674 216.421 67.7542 216.421C67.5558 216.359 67.3786 216.317 67.2723 216.157C67.1094 215.989 67.1661 215.787 67.2511 215.613C67.6054 214.812 67.903 213.906 67.903 212.945C67.903 210.973 66.9322 208.946 65.7064 207.186C64.4877 205.433 63.0564 204.005 62.2274 203.24ZM76.8167 210.576C75.8247 210.534 73.7344 210.513 70.9923 211.579C70.9427 211.203 70.8718 210.834 70.7797 210.465C73.7699 209.343 76.0514 209.413 77.1001 209.545C77.7874 209.629 78.1842 210.311 77.915 210.932C77.5111 211.886 76.4482 213.837 74.0249 215.794C73.7274 215.551 73.4156 215.321 73.0896 215.105C75.3854 213.307 76.4128 211.524 76.8167 210.576ZM46.8983 209.545C47.9505 209.413 50.2328 209.343 53.2215 210.465C53.1294 210.834 53.0586 211.203 53.009 211.579C50.2682 210.513 48.1751 210.534 47.1874 210.576C47.5899 211.524 48.613 213.307 50.9081 215.105C50.5807 215.314 50.2696 215.551 49.9728 215.732C47.5502 213.83 46.4902 211.886 46.0835 210.932C45.817 210.311 46.2152 209.629 46.8983 209.545ZM61.1291 236.535C60.5268 235.629 59.4215 233.706 58.8971 230.968C59.2585 230.836 59.6128 230.69 59.967 230.516C60.4134 233.086 61.4196 234.912 62.0006 235.803C62.5816 234.912 63.5878 233.086 64.0342 230.523C64.3885 230.69 64.7428 230.78 65.1041 230.968C64.5798 233.706 63.4815 235.629 62.8722 236.535C62.447 237.155 61.5542 237.155 61.1291 236.535Z" fill="#BABABA" fill-opacity="0.25"/>
<path d="M182.536 218.372C182.536 216.526 184.123 215.028 185.937 215.028C187.878 215.028 189.402 216.526 189.402 218.372C189.402 220.218 187.878 221.716 185.937 221.716C184.123 221.716 182.536 220.218 182.536 218.372ZM185.937 216.143C184.746 216.143 183.669 217.139 183.669 218.372C183.669 219.605 184.746 220.602 185.937 220.602C187.255 220.602 188.268 219.605 188.268 218.372C188.268 217.139 187.255 216.143 185.937 216.143ZM184.831 202.428C185.448 201.857 186.39 201.857 187.007 202.428C187.864 203.221 189.359 204.711 190.642 206.556C191.917 208.39 193.037 210.639 193.037 212.945C193.037 213.795 192.881 214.603 192.597 215.356C193.526 215.467 194.44 215.76 195.29 216.247C197.323 217.397 198.748 219.473 199.726 221.472C200.71 223.493 201.277 225.506 201.547 226.635C201.738 227.45 201.27 228.251 200.455 228.488C199.329 228.823 197.267 229.352 194.999 229.519C192.746 229.693 190.209 229.512 188.176 228.363C187.255 227.833 186.49 227.137 185.916 226.328C185.335 227.137 184.576 227.84 183.648 228.363C181.622 229.512 179.078 229.693 176.825 229.526C174.558 229.352 172.498 228.823 171.369 228.488C170.559 228.251 170.088 227.45 170.282 226.635C170.551 225.506 171.117 223.493 172.1 221.479C173.077 219.473 174.503 217.397 176.534 216.247C177.392 215.76 178.313 215.467 179.234 215.356C178.958 214.603 178.802 213.795 178.802 212.945C178.802 210.639 179.921 208.391 181.197 206.556C182.479 204.711 183.974 203.221 184.831 202.428ZM186.227 203.24C186.05 203.073 185.724 203.073 185.604 203.24C184.775 204.005 183.351 205.433 182.132 207.186C180.906 208.946 179.935 210.973 179.935 212.945C179.935 213.906 180.169 214.812 180.587 215.613C180.672 215.787 180.665 215.989 180.566 216.157C180.46 216.324 180.275 216.421 180.077 216.421C179.071 216.421 178.043 216.679 177.101 217.209C176.917 217.313 176.74 217.425 176.57 217.55C175.096 218.588 173.963 220.232 173.122 221.96C172.188 223.813 171.645 225.806 171.385 226.893C171.328 227.13 171.459 227.353 171.697 227.422C172.785 227.743 174.758 228.251 176.91 228.412C179.078 228.572 181.345 228.384 183.081 227.394C184.116 226.809 184.902 225.966 185.413 224.998C185.505 224.81 185.703 224.691 185.916 224.691C186.128 224.691 186.319 224.81 186.419 224.998C186.922 225.966 187.708 226.809 188.743 227.394C190.486 228.384 192.746 228.572 194.914 228.412C197.068 228.251 199.038 227.743 200.129 227.422C200.37 227.353 200.498 227.13 200.441 226.893C200.179 225.806 199.64 223.869 198.705 221.96C197.763 220.03 196.466 218.198 194.73 217.209C193.788 216.679 192.767 216.421 191.754 216.421C191.556 216.359 191.379 216.317 191.272 216.157C191.109 215.989 191.166 215.787 191.251 215.613C191.605 214.812 191.903 213.906 191.903 212.945C191.903 210.973 190.932 208.946 189.706 207.186C188.488 205.433 187.056 204.005 186.227 203.24ZM200.817 210.576C199.825 210.534 197.734 210.513 194.992 211.579C194.943 211.203 194.872 210.834 194.78 210.465C197.77 209.343 200.051 209.413 201.1 209.545C201.787 209.629 202.184 210.311 201.915 210.932C201.511 211.886 200.448 213.837 198.025 215.794C197.727 215.551 197.416 215.321 197.09 215.105C199.385 213.307 200.413 211.524 200.817 210.576ZM170.898 209.545C171.951 209.413 174.233 209.343 177.222 210.465C177.129 210.834 177.059 211.203 177.009 211.579C174.268 210.513 172.175 210.534 171.187 210.576C171.59 211.524 172.613 213.307 174.908 215.105C174.581 215.314 174.27 215.551 173.973 215.732C171.55 213.83 170.49 211.886 170.083 210.932C169.817 210.311 170.215 209.629 170.898 209.545ZM185.129 236.535C184.527 235.629 183.421 233.706 182.897 230.968C183.258 230.836 183.613 230.69 183.967 230.516C184.413 233.086 185.42 234.912 186.001 235.803C186.582 234.912 187.588 233.086 188.034 230.523C188.388 230.69 188.743 230.78 189.104 230.968C188.58 233.706 187.482 235.629 186.872 236.535C186.447 237.155 185.554 237.155 185.129 236.535Z" fill="#BABABA" fill-opacity="0.25"/>
</g>
<defs>
<clipPath id="clip0_1_20">
<rect width="248" height="248" fill="white"/>
</clipPath>
</defs>
</svg>
